<svg width="158" height="100" viewBox="0 0 158 100" fill="none" xmlns="http://www.w3.org/2000/svg">
<g clip-path="url(#clip0_3124_29608)">
<path d="M152.655 72.9772C152.655 72.9714 152.657 73.0065 152.655 72.9772V72.9772Z" fill="black"/>
<path d="M157.792 71.3623C157.283 69.4306 155.558 67.5954 155.558 67.5954C155.558 67.5954 153.93 64.2323 150.7 61.1724C151.443 61.4525 152.764 61.8968 152.764 61.8968C152.764 61.8968 149.14 58.1029 147.25 56.515C145.359 54.9271 142.037 52.4642 142.037 52.4642C142.037 52.4642 143.609 52.7481 144.59 52.9857C140.568 49.922 136.579 47.4861 131.293 45.8151C131.895 45.5138 132.495 45.2124 133.098 44.913C130.199 44.1056 127.314 43.2517 124.354 42.6877C124.918 42.3651 125.481 42.0444 126.045 41.7218C121.114 40.7366 116.49 40.047 111.465 41.094C111.797 40.6903 112.13 40.2865 112.462 39.8809C109.734 40.132 107.024 40.2575 104.436 41.2215C101.582 42.2859 99.8018 44.6213 98.096 46.9568C94.9581 51.253 104.121 55.9355 107.202 56.7391C110.41 57.5755 113.457 57.9522 116.752 58.1048C116.334 57.3804 116.07 56.7565 116.07 56.7565C116.07 56.7565 120.696 57.8885 124.549 58.4197C124.215 58.0913 123.737 57.0482 123.737 57.0482C123.737 57.0482 130.99 59.5382 135.013 60.562C134.621 60.0887 134.31 59.289 134.31 59.289C134.31 59.289 142.556 63.1776 147.776 68.3527C146.399 66.6199 145.023 64.8891 143.646 63.1563C145.387 64.2284 147.04 65.4242 148.637 66.6952C150.46 68.1479 151.944 70.578 152.266 72.728C152.698 75.6083 150.265 76.6417 149.002 77.0938C146.358 78.0403 141.089 78.1214 141.089 78.1214C141.089 78.1214 145.111 79.8272 149.612 79.0352C149.368 79.267 147.942 80.2463 147.942 80.2463C147.942 80.2463 151.771 80.5941 154.662 78.0249C155.2 77.5458 155.686 76.8175 156.296 76.379C158.225 74.9978 158.179 72.7957 157.8 71.3604L157.792 71.3623Z" fill="black"/>
<path d="M138.493 44.6871C135.967 44.3374 133.758 46.076 133.758 46.076C133.758 46.076 134.932 46.2402 135.895 46.5415C136.859 46.8429 138.287 47.604 139.492 47.7759C140.341 47.8976 140.976 47.7894 141.786 47.5828C141.172 46.1571 140.205 44.9324 138.493 44.6871Z" fill="black"/>
<path d="M155.293 65.2022C154.748 64.0837 153.5 63.369 151.647 63.1777C152.641 65.4398 155.264 67.4102 155.264 67.4102C155.264 67.4102 155.839 66.3207 155.293 65.2022Z" fill="black"/>
<path fill-rule="evenodd" clip-rule="evenodd" d="M154.33 67.9856L154.495 68.3487C152.527 64.1994 148.145 60.1562 145.629 58.1569C142.892 56.0455 141.718 55.3636 141.718 55.3636C144.574 56.2619 148.559 59.4531 148.559 59.4531C142.284 53.0436 134.302 49.4912 134.302 49.4912C135.798 49.6515 138.417 50.2928 138.417 50.2928C133.976 47.1229 127.382 45.788 127.382 45.788C128.168 45.3688 129.231 44.8608 129.231 44.8608C124.421 43.4371 120.634 43.045 120.634 43.045C121.426 42.2549 122.124 41.9091 122.124 41.9091C115.182 40.2787 108.116 42.761 108.116 42.761C108.331 41.998 109.188 41.0205 109.188 41.0205C101.335 41.459 100.396 46.0546 98.9275 47.5034C97.1011 49.3057 102.227 53.8202 107.125 55.1376C110.367 56.0107 113.585 56.1324 113.585 56.1324C112.596 55.1569 111.916 54.023 111.916 54.023C115.287 55.6205 120.861 56.173 120.861 56.173C120.315 55.7442 119.046 54.2664 119.046 54.2664C122.629 55.4757 129.394 57.1582 129.394 57.1582C128.036 56.1035 126.295 55.0739 126.295 55.0739C134.444 56.6231 140.457 61.2728 140.457 61.2728C139.14 59.4125 133.828 56.2464 133.828 56.2464C133.828 56.2464 143.374 60.6083 149.059 65.3487C145.503 61.5954 138.864 57.5735 138.864 57.5735C154.075 64.9527 155.165 72.9656 153.766 75.2914C153.475 75.7743 152.956 76.1916 152.317 76.5489C153.1 75.8496 153.673 74.7814 153.591 73.1491C153.601 69.7106 150.255 66.417 150.255 66.417C150.255 66.417 152.805 69.8284 153.137 72.641C153.465 75.4382 152.012 76.9932 148.62 77.878C147.028 78.2624 145.705 78.4227 145.705 78.4227C148.161 78.4459 150.38 78.1368 152.053 77.6307C152.123 77.6095 152.189 77.5882 152.255 77.565C151.612 78.1774 150.84 78.8458 150.17 79.2476C150.17 79.2476 153.152 78.8245 154.672 76.2882C155.484 75.9327 156.714 75.1252 156.931 73.464C157.266 70.9334 154.334 67.9836 154.334 67.9836L154.33 67.9856ZM155.128 75.3165C155.443 74.4607 155.604 73.4253 155.509 72.1658L155.503 72.1794C155.486 71.0647 155.183 69.9134 154.683 68.764L154.934 69.3185C157.3 73.0409 155.925 74.7234 155.128 75.3165Z" fill="#F08C21"/>
<path fill-rule="evenodd" clip-rule="evenodd" d="M108.967 43.2845C108.66 43.6052 107.939 44.5073 107.939 44.5073C107.939 44.5073 112.036 42.9716 117.605 43.0044C117.047 43.4468 115.246 44.5556 115.246 44.5556C115.246 44.5556 121.493 44.461 125.254 45.9291C125.013 46.1802 123.742 46.497 123.742 46.497C123.742 46.497 130.407 47.7217 134.601 51.1757C132.658 50.7777 130.261 50.1847 130.261 50.1847C130.261 50.1847 133.976 51.1177 138.788 54.2104C141.703 56.0823 147.098 59.7835 150.147 63.4518C152.505 66.2895 153.475 68.4975 153.475 68.4975C153.475 68.4975 152.13 65.7081 148.878 62.9071C146.166 60.5716 141.742 58.1241 138.874 56.6309C135.715 54.985 130.22 53.5807 130.22 53.5807C130.22 53.5807 131.883 54.5948 132.719 55.2883C127.694 54.4403 123.377 52.3869 123.377 52.3869C123.377 52.3869 123.97 53.3952 125.45 54.0385C121.471 54.0713 116.466 51.7513 116.466 51.7513C116.466 51.7513 117.49 52.9065 118.287 53.4841C115.328 53.2059 110.272 51.6914 110.272 51.6914C110.272 51.6914 111.372 52.7288 112.316 53.4358C111.092 53.4899 107.844 53.3991 104.818 52.0237C100.694 50.148 99.7163 48.2336 100.567 47.5092C101.603 46.6284 101.875 43.6805 108.963 43.2826L108.967 43.2845Z" fill="#FEBC1D"/>
<path fill-rule="evenodd" clip-rule="evenodd" d="M106.322 45.0229C105.972 45.5947 105.842 45.9482 105.842 45.9482C105.842 45.9482 108.098 45.0287 112.427 45.1195C111.939 45.6585 111.704 46.1414 111.704 46.1414C111.704 46.1414 112.897 45.8072 115.726 46.0139C117.743 46.1627 120.527 47.3739 122.561 48.2296C125.213 49.3442 127.638 51.3339 127.638 51.3339C127.638 51.3339 125.015 50.484 122.274 50.1362C120.101 49.86 118.607 50.7312 116.962 51.0326C115.31 51.3339 112.701 50.7969 112.701 50.7969C112.701 50.7969 113.093 51.2489 113.53 51.7647C110.253 51.8536 107.414 50.3545 107.414 50.3545C107.414 50.3545 107.867 51.2257 108.281 51.7125C106.52 51.4885 104.702 50.9051 103.691 50.5071C102.141 49.8967 101.084 49.0854 101.824 48.3166C102.565 47.5477 102.341 45.1408 106.318 45.0229H106.322Z" fill="#FEE757"/>
<path fill-rule="evenodd" clip-rule="evenodd" d="M103.231 48.1545C103.454 47.3122 104.218 47.2736 105.279 46.6574C106.031 46.2208 109.322 45.7997 111.174 46.5511L109.497 47.2485C109.497 47.2485 110.276 47.0225 111.912 47.4803C113.54 47.9362 114.224 47.3818 115.065 47.4745C116.252 47.6078 117.774 48.2202 118.279 48.9581C118.279 48.9581 115.823 48.9851 114.265 49.582C112.703 50.1789 110.474 49.4893 110.474 49.4893C110.474 49.4893 110.886 50.0244 111.508 50.5035C109.427 50.772 106.518 49.6052 106.132 49.4545C106.41 50.0457 106.674 50.4436 106.674 50.4436C106.674 50.4436 102.945 49.2459 103.235 48.1545H103.231Z" fill="white"/>
<path fill-rule="evenodd" clip-rule="evenodd" d="M135.53 45.6854C135.53 45.6854 136.754 45.1214 138.39 45.33C140.022 45.5386 140.57 46.7981 140.57 46.7981C140.57 46.7981 139.702 47.0203 138.765 46.6513C138.005 46.3519 136.575 45.6719 135.53 45.6835V45.6854Z" fill="#F08C21"/>
<path fill-rule="evenodd" clip-rule="evenodd" d="M152.639 63.9038C152.639 63.9038 153.992 65.482 154.833 66.0925C154.833 66.0925 154.514 64.4041 152.639 63.9038Z" fill="#F08C21"/>
<path fill-rule="evenodd" clip-rule="evenodd" d="M141.11 90.602C140.86 90.6001 139.208 90.5557 138.93 90.5557C138.511 90.6233 133.183 91.4771 133.183 91.4771C133.183 91.4771 134.755 85.9813 134.804 85.9041C133.968 85.9195 132.88 85.9311 131.681 85.9311C127.916 85.9311 125.095 85.8036 123.298 85.5506L120.109 85.1043L120.752 81.9672C121.392 78.8455 122.266 72.8243 122.621 69.5249L122.977 66.2216C122.977 66.2216 127.681 67.0929 128.604 67.0929C129.711 67.0929 134.753 66.5269 134.753 66.5269L133.504 64.5584C133.504 64.5584 141.025 66.1849 141.301 66.1849H141.31L144.141 65.8353C144.644 65.7735 154.071 63.0884 154.071 63.0884C154.071 63.0884 149.183 71.1901 149.035 71.5571C148.688 73.711 146.931 81.6156 145.762 86.1301C145.849 86.4256 148.219 93.1674 148.219 93.1674C148.219 93.1674 141.367 90.6774 141.11 90.6001V90.602ZM133.875 70.7458C133.834 70.9022 133.245 73.1527 132.622 75.4379C133.03 75.3877 133.442 75.3278 133.855 75.2583L133.797 71.7039L137.411 71.8024C137.432 71.5803 137.45 71.3659 137.465 71.1688C137.37 70.9853 137.248 70.7612 137.141 70.5796L134.908 66.7896L133.877 70.7458H133.875Z" fill="black"/>
<path d="M94.9135 61.2881L103.884 66.6544L127.475 68.4452L132.204 67.0447L134.753 66.5289L141.969 71.8373L138.394 84.7084L65.8008 81.0149L68.3246 61.4175L94.9135 61.2881Z" fill="black"/>
<path fill-rule="evenodd" clip-rule="evenodd" d="M50.8967 95.0082L46.4358 81.1654L48.2174 81.4069L47.7026 79.7359C47.0867 79.4558 46.4941 79.1216 45.9306 78.7353C43.3815 76.9852 41.6853 74.3252 41.1549 71.2479C40.6964 68.5879 41.1316 65.7888 42.3557 63.2892C41.9535 62.4392 41.7786 61.4695 41.8544 60.4882C42.1283 56.9821 48.5302 53.8333 48.5302 53.8333C48.5302 53.8333 48.4389 54.5983 48.5866 55.5487C48.7343 56.4991 49.0063 56.7483 49.0063 56.7483C50.7646 55.9293 52.6784 55.4908 54.5805 55.4908C57.0402 55.4908 59.3678 56.1958 61.3127 57.5326C61.472 57.6427 61.6294 57.7548 61.7809 57.8726C61.6488 57.6813 58.3031 52.3652 58.3031 52.3652C58.3031 52.3652 65.9524 52.7129 66.6557 52.7129C66.7062 52.7129 66.7529 52.7129 66.7937 52.711C67.328 52.6859 69.063 52.3169 69.4982 52.1701C69.9567 52.0079 79.1001 48.9248 79.1001 48.9248L75.393 58.1334C75.0219 60.0226 73.2888 68.783 71.8239 74.7405L72.263 74.642L72.6516 77.9645C72.8633 79.7765 73.0635 82.3418 73.1276 84.5382L74.0369 84.2388L73.7804 96.2387L71.4081 96.7178C69.1193 97.1814 64.9129 97.5639 61.5323 97.8691C60.1217 97.9966 58.5304 98.1415 58.0952 98.211C57.3666 98.4042 50.9608 99.9979 50.9608 99.9979L50.8987 95.0082H50.8967Z" fill="black"/>
<path fill-rule="evenodd" clip-rule="evenodd" d="M69.5215 78.324L66.7295 77.3716L72.0103 74.0104C73.7648 72.8939 76.1565 71.0356 78.3598 69.0845C76.5762 68.9898 72.7292 68.7445 72.7292 68.7445L71.1924 56.0685C71.1924 56.0685 86.2208 58.2166 91.8864 58.4619C92.718 58.2629 102.269 55.5508 102.269 55.5508C102.269 55.5508 97.243 64.1856 95.2671 67.1528C97.8395 67.7381 99.7999 68.3504 101.098 68.9725L103.043 69.9036L102.534 74.7078L107.564 88.4269C107.564 88.4269 102.073 87.8725 98.6749 88.0232C95.2768 88.1739 84.5596 88.5293 81.0954 88.8287C77.6312 89.1301 67.4833 89.5551 67.4833 89.5551L69.5195 78.322L69.5215 78.324Z" fill="black"/>
<path fill-rule="evenodd" clip-rule="evenodd" d="M104.811 84.1616C104.719 84.1674 102.23 84.2987 102.23 84.2987L99.559 75.1442C99.013 74.3484 98.3718 73.4192 98.1873 73.1623L94.0547 67.4501L98.5292 68.0683L96.835 61.7457C96.835 61.7457 101.988 62.5996 106.326 62.6633C110.665 62.7271 113.402 62.588 114.115 62.4392L112.456 59.7889C112.456 59.7889 120.364 61.2802 120.842 61.3304C121.403 61.2048 122.147 61.0117 122.392 60.9402C123.395 60.5094 131.081 56.4219 131.081 56.4219C131.081 56.4219 128.277 65.1012 128.219 65.3755C128.044 66.8841 126.049 77.6883 124.858 81.4938L131.396 92.2111C131.396 92.2111 125.466 91.7146 117.109 92.6689C108.753 93.6232 103.942 94.3225 103.942 94.3225C103.942 94.3225 104.653 86.5434 104.813 84.1577L104.811 84.1616Z" fill="black"/>
<path d="M9.86031 86.0722C9.5203 84.2351 7.23154 71.7948 6.81576 69.5559C6.56512 69.0343 0 60.0131 0 60.0131C0 60.0131 11.8576 62.0704 12.7417 62.111C15.7804 62.0762 18.549 61.8792 21.4751 61.3286L20.0509 59.8161C20.0509 59.8161 26.1769 59.9088 29.2098 58.5914C32.2524 57.2701 36.7483 53.5322 36.7483 53.5322L37.1991 56.9764C41.1588 56.2578 45.8257 52.5566 45.8257 52.5566L46.0025 57.7066C46.1579 62.1999 46.0161 68.0704 45.6314 73.0253C45.1107 79.8636 44.487 84.8842 43.7759 87.9498L43.294 90.0265L31.757 91.3226L32.097 89.6672L26.2138 90.4688L26.482 87.6717C23.383 88.1411 19.9304 88.7341 17.2065 89.4025C16.5673 89.6981 8.3118 94.6955 8.3118 94.6955C8.3118 94.6955 9.87196 86.6247 9.85836 86.0703L9.86031 86.0722Z" fill="black"/>
<path fill-rule="evenodd" clip-rule="evenodd" d="M67.8874 77.6979L62.6143 78.3142C64.2853 71.2131 65.0255 64.7167 65.1673 57.6427C64.9692 57.1057 63.8462 55.5603 63.8462 55.5603C63.8462 55.5603 66.0455 55.765 66.9354 55.7225C67.8253 55.68 69.9139 55.2242 70.5065 55.0136C71.0991 54.803 74.0853 53.6846 74.0853 53.6846L72.4824 57.2216C72.4824 57.2216 69.5078 72.5383 67.8855 77.7018L67.8874 77.6979ZM63.8986 84.4513C64.0696 83.9355 64.227 83.5607 64.3707 82.873C58.6741 83.9664 51.9827 83.3463 51.9827 83.3463L50.5275 78.6232C50.5275 78.6232 61.8255 80.0527 69.6419 78.3122C69.9003 80.5299 70.1567 84.1248 70.114 86.4294C66.5721 88.3785 62.2122 89.3443 58.7246 89.976C58.8956 90.3489 59.1773 91.1042 59.1773 91.1042C59.1773 91.1042 63.1486 91.0037 70.9164 88.4422L70.8018 93.768C67.3531 94.4654 58.2933 95.0488 57.4034 95.2786C56.5136 95.5085 53.9431 96.3063 53.9431 96.3063L53.9217 94.5214L50.7878 84.7951C50.7878 84.7951 53.8265 85.2066 55.3692 85.2066C58.5983 85.2066 61.3301 85.0829 63.9006 84.4513H63.8986ZM47.65 76.2569C43.3095 73.2781 42.9287 67.2801 46.0529 62.9897C45.2932 62.6864 44.7881 61.6588 44.8697 60.7624C44.9707 59.6556 46.1306 58.767 46.1306 58.767C46.187 59.4701 46.4784 60.1713 47.0691 60.4031C47.582 60.604 48.1707 60.577 48.4952 60.5384C51.9749 57.9904 56.4592 57.8629 59.5912 60.0129C63.3177 62.5725 64.5203 67.9369 61.674 72.5615C58.6994 77.3966 52.2547 79.4172 47.6519 76.2569H47.65ZM55.2565 65.273C54.184 64.4733 52.3344 64.7302 51.12 65.9858C49.7872 67.3632 49.4977 69.9304 51.2405 70.9291C52.9833 71.9278 55.105 71.159 55.921 69.2814C56.6127 67.6916 56.329 66.0708 55.2565 65.2711V65.273Z" fill="url(#paint0_linear_3124_29608)"/>
<path d="M50.786 60.4956C50.786 60.4956 48.4603 61.1099 46.9487 63.0184C45.4371 64.927 45.0874 67.2683 45.0874 67.2683C45.0874 67.2683 47.7045 62.918 50.786 60.4975V60.4956Z" fill="white"/>
<path d="M69.8868 55.8809C69.8868 55.8809 67.5903 56.8004 65.3248 56.3561C65.3248 56.3561 66.1059 57.121 66.0806 57.7527C66.0554 58.3863 65.6765 64.3805 65.6765 64.3805L67.3999 57.687L69.8887 55.8809H69.8868Z" fill="white"/>
<path d="M69.9432 89.8447L69.8285 92.9606L63.8677 93.7082L68.69 92.2053L69.9432 89.8447Z" fill="white"/>
<path fill-rule="evenodd" clip-rule="evenodd" d="M86.4307 74.0569C86.4307 74.0569 82.6226 78.3762 81.3519 79.259C79.8695 78.6698 73.6424 76.5449 73.6424 76.5449C77.229 74.2616 82.7663 69.5366 85.3368 66.2855C82.4496 66.2218 78.457 66.1271 75.5426 65.9069L74.711 59.6152C79.8597 60.3532 85.8634 61.2418 92.0846 61.4832C93.0133 61.3731 96.1492 60.33 96.1492 60.33C96.1492 60.33 92.3682 66.2662 90.0639 69.2121C92.5431 69.6023 97.4762 70.5798 99.7824 71.6847L99.2248 76.4194C93.6642 74.988 86.4287 74.0569 86.4287 74.0569H86.4307ZM100.696 78.1831L103.177 85.1334C103.177 85.1334 100.651 84.975 97.6433 85.0175C94.6356 85.06 71.1458 86.3388 71.1458 86.3388L72.1522 80.7851C84.2682 80.7851 90.9227 80.1071 100.696 78.1811V78.1831Z" fill="url(#paint1_linear_3124_29608)"/>
<path d="M75.8438 60.5615L76.3217 64.5602L77.3923 61.8442L83.8855 61.5313L75.8438 60.5615Z" fill="white"/>
<path d="M100.571 81.0146L101.69 84.1653C101.69 84.1653 97.0099 84.0494 92.9395 84.3372L100.208 83.182L100.571 81.0146Z" fill="white"/>
<path fill-rule="evenodd" clip-rule="evenodd" d="M121.86 80.9181L118.015 81.3662C118.557 79.0868 119.004 76.589 119.359 73.873C117.943 73.9194 116.532 74.0797 116.532 74.0797L116.212 70.5582C116.212 70.5582 118.308 70.2472 119.765 69.9709C119.897 68.3618 119.977 67.3264 120.004 65.9355C120.012 65.5743 118.959 64.0888 118.959 64.0888C118.959 64.0888 120.577 64.4732 121.355 64.3052C122.027 64.1603 123.249 63.8512 123.474 63.7585C124.675 63.262 125.975 62.4951 125.975 62.4951C125.975 62.4951 125.299 64.2433 125.211 65.0102C125.054 66.4011 122.928 77.8427 121.86 80.92V80.9181ZM115.944 74.9683L115.864 79.5021C110.183 80.8601 104.469 81.1634 104.469 81.1634L102.333 73.844C102.333 73.844 100.973 71.8563 100.645 71.4043C101.752 71.5569 103.493 71.7443 104.593 71.7443C106.893 71.7443 108.834 71.6341 110.659 71.072C110.773 70.6103 110.876 69.8975 110.97 69.2774C106.569 70.4539 102.1 69.7043 102.1 69.7043L100.933 65.3502C100.933 65.3502 109.72 66.5537 114.735 65.3908C114.929 67.4326 115.124 70.7823 115.098 72.828C112.602 74.5414 109.544 75.3798 107.101 75.9284C107.232 76.251 107.725 77.2729 107.725 77.2729C107.725 77.2729 110.503 77.1859 115.944 74.9683ZM112.45 81.4396C112.45 81.4396 112.023 84.9998 111.881 86.4679C114.253 86.3906 119.674 85.1795 122.891 84.0842L125.942 89.0835C125.942 89.0835 121.277 88.9811 107.362 90.8336C107.651 88.1659 107.964 82.0674 107.964 82.0674L112.45 81.4416V81.4396Z" fill="url(#paint2_linear_3124_29608)"/>
<path fill-rule="evenodd" clip-rule="evenodd" d="M102.644 68.7424L101.955 66.1558C101.955 66.1558 104.28 66.4108 108.869 66.5363L103.274 67.0985L102.644 68.7424Z" fill="white"/>
<path d="M123.158 64.6548C123.158 64.6548 121.714 65.2304 120.294 64.9523C120.294 64.9523 120.783 65.4313 120.766 65.8293C120.75 66.2253 120.506 69.9883 120.506 69.9883L121.594 65.7887L123.158 64.6548Z" fill="white"/>
<path d="M123.253 86.2632L124.593 88.4093C124.593 88.4093 122.996 88.4808 121.073 88.6141C119.567 88.7184 117.937 88.9541 116.909 89.0487L123.125 87.7197L123.253 86.2632Z" fill="white"/>
<path fill-rule="evenodd" clip-rule="evenodd" d="M146.074 70.8982C145.882 72.3586 143.898 81.3952 142.647 86.0758C142.692 86.609 143.232 88.135 143.232 88.135C143.232 88.135 141.674 87.5652 141.382 87.5864C141.091 87.6077 138.862 87.513 138.619 87.5536C138.376 87.5941 137.658 87.71 137.658 87.71C137.658 87.71 137.864 86.7635 137.967 86.3887C138.893 82.9638 139.573 79.0057 139.573 79.0057L136.941 78.5961L136.877 74.8022L140.117 74.8911C140.117 74.8911 140.469 72.0978 140.525 70.7301C140.539 70.3901 139.752 69.0592 139.752 69.0592C139.752 69.0592 141.021 69.2601 141.637 69.1847C142.437 69.0862 143.566 68.9471 144.516 68.8293C145.528 68.7037 147.355 68.1416 147.355 68.1416C147.355 68.1416 146.179 70.3225 146.074 70.902V70.8982ZM123.721 82.5697C124.37 79.4036 125.262 73.3051 125.635 69.8473C127.972 70.3303 130.945 69.9883 130.945 69.9883C130.945 69.9883 129.262 76.4191 128.557 78.6483C130.805 78.7101 133.125 78.4995 135.517 78.0147L136.393 82.8556C136.393 82.8556 127.663 83.1222 123.721 82.5697Z" fill="url(#paint3_linear_3124_29608)"/>
<path d="M129.571 70.7783C129.571 70.7783 127.385 70.9232 126.305 70.7783C126.227 71.2883 125.38 77.0217 125.38 77.0217L127.387 71.7461L129.571 70.7803V70.7783Z" fill="white"/>
<path d="M144.118 69.4146C144.118 69.4146 142.124 70.054 140.902 69.7739C140.902 69.7739 141.334 70.3225 141.314 70.7803C141.295 71.2381 140.817 75.5613 140.817 75.5613L142.237 70.7146L144.118 69.4146Z" fill="white"/>
<path d="M139.696 86.883C139.696 86.883 141.446 86.798 142.189 87.1303L141.884 86.234L142.468 83.7266L141.238 86.1103L139.694 86.883H139.696Z" fill="white"/>
<path fill-rule="evenodd" clip-rule="evenodd" d="M18.6501 80.7383L18.1197 77.9836C18.1197 77.9836 22.6195 77.5818 23.9679 77.3404C23.8785 76.5503 23.1266 73.4711 22.9051 72.0976C20.7057 72.5304 17.2026 73.0558 17.2026 73.0558L16.4876 70.0655C16.4876 70.0655 19.4156 70.2142 24.7878 69.6791C24.8538 68.4872 25.0986 65.5336 25.223 63.542C21.5994 64.6141 16.9092 65.2516 12.7436 65.2941C11.2806 65.2477 7.2782 64.477 7.2782 64.477C7.2782 64.477 9.55141 67.4364 9.94388 68.9257C10.7502 73.2528 12.2482 81.8993 12.9476 85.6584C13.0545 86.8059 12.6096 88.867 12.6096 88.867C12.6096 88.867 14.9799 87.2869 16.235 86.7981C19.5905 85.9578 24.7217 84.8142 27.8828 84.4434C27.6011 83.1414 27.0046 80.2457 26.7249 78.9437C23.3889 79.9791 18.6482 80.7422 18.6482 80.7422L18.6501 80.7383ZM34.4188 59.0623C34.4188 59.0623 31.8852 60.9535 30.1327 61.6315C28.4987 62.2651 26.96 62.4042 26.96 62.4042C26.96 62.4042 28.1218 63.5072 28.219 64.1466C28.5007 65.9876 28.8193 68.9721 29.0738 70.9869C27.708 71.3385 23.9135 71.8658 23.9135 71.8658L25.9516 76.8439L29.6062 76.4827C29.6062 76.4827 30.0026 82.7067 29.5926 86.9662L34.9842 86.2302C35.4291 83.1182 35.5943 78.8587 35.4835 73.4537C35.3689 68.4776 34.957 63.1962 34.4169 59.0604L34.4188 59.0623ZM42.9754 57.8105C42.9754 57.8105 41.1957 58.8537 39.5345 59.4583C37.7723 60.1016 35.4544 60.231 35.4544 60.231C35.4544 60.231 36.2918 61.3456 36.3404 61.9251C36.6046 65.0913 36.6571 68.7963 36.6182 72.8897C36.558 77.8948 36.0897 85.2663 35.5574 87.8664L40.8246 87.2753C41.596 83.9488 42.1924 78.314 42.6121 72.795C43.0104 67.6392 43.1173 61.9193 42.9754 57.8105Z" fill="url(#paint4_linear_3124_29608)"/>
<path d="M15.2888 65.8723C15.2888 65.8723 13.0719 66.0713 12.524 66.0481C11.9761 66.0249 10.8259 65.9805 9.18994 65.627C9.18994 65.627 10.55 67.6398 10.7307 68.3024C10.8356 68.6849 11.7021 74.0261 11.7021 74.0261L11.8401 67.2245L15.2888 65.8723Z" fill="white"/>
<path d="M28.6094 62.9067C28.6094 62.9067 29.4254 62.8294 29.88 62.6903C30.4221 62.5223 32.2368 61.6665 32.2368 61.6665L30.2201 63.7933L29.6236 68.9356C29.6236 68.9356 29.1378 64.5544 29.064 64.0831C28.9921 63.6118 28.7881 63.1153 28.6113 62.9086L28.6094 62.9067Z" fill="white"/>
<path d="M32.0425 85.8734L34.2108 85.5083C34.3546 84.7974 34.5158 83.5205 34.5838 82.375L33.4647 84.695L32.0425 85.8753V85.8734Z" fill="white"/>
<path d="M37.8907 86.7968L40.0726 86.5398C40.0726 86.5398 40.5156 84.7375 40.6419 83.5225L39.4082 85.744L37.8907 86.7968Z" fill="white"/>
<path fill-rule="evenodd" clip-rule="evenodd" d="M26.2449 81.3706L26.7423 83.5786C26.7423 83.5786 23.1362 84.3493 21.5994 84.7202L25.6775 83.0454L26.2449 81.3706Z" fill="white"/>
<path d="M37.0786 60.9192C37.0786 60.9192 39.2877 60.6912 40.6769 60.0132L38.5455 61.6667L37.4769 66.9539C37.4769 66.9539 37.4672 63.8651 37.3293 61.972C37.2982 61.5547 37.1855 61.1703 37.0806 60.9211L37.0786 60.9192Z" fill="white"/>
<path d="M152.088 91.0117V87.3066H153.739C154.071 87.3066 154.328 87.3395 154.499 87.4032C154.67 87.4708 154.808 87.5887 154.913 87.7587C155.018 87.9267 155.066 88.1122 155.066 88.315C155.066 88.5777 154.983 88.7979 154.814 88.9757C154.641 89.1572 154.377 89.2732 154.021 89.3214C154.149 89.3833 154.25 89.4451 154.316 89.5069C154.46 89.6402 154.596 89.8044 154.724 90.0014L155.369 91.0117H154.753L154.258 90.239C154.116 90.0149 153.998 89.8449 153.904 89.7252C153.809 89.6054 153.726 89.5243 153.652 89.476C153.576 89.4316 153.504 89.3987 153.428 89.3794C153.37 89.3678 153.279 89.362 153.154 89.362H152.581V91.0098H152.088V91.0117ZM152.581 88.9428H153.64C153.866 88.9428 154.044 88.9196 154.171 88.8733C154.299 88.8269 154.396 88.7496 154.462 88.6492C154.528 88.5468 154.561 88.4367 154.561 88.3169C154.561 88.1412 154.497 87.9963 154.369 87.8842C154.239 87.7722 154.038 87.7142 153.763 87.7142H152.583V88.9428H152.581Z" fill="#010101"/>
<path d="M150.382 89.1609C150.382 90.8763 151.787 92.271 153.512 92.271C155.237 92.271 156.64 90.8743 156.64 89.1609C156.64 87.4474 155.235 86.0508 153.512 86.0508C151.789 86.0508 150.382 87.4474 150.382 89.1609ZM150.932 89.1609C150.932 87.7488 152.088 86.5994 153.512 86.5994C154.936 86.5994 156.088 87.7488 156.088 89.1609C156.088 90.573 154.932 91.7224 153.512 91.7224C152.092 91.7224 150.932 90.5749 150.932 89.1609Z" fill="#010101"/>
<path d="M145.056 20.0187L144.351 20.3007C136.785 23.3413 130.564 25.3561 125.866 26.2949C120.183 27.4288 118.11 26.7044 117.115 26.3548C116.797 26.2427 116.565 26.1616 116.332 26.1655C115.203 26.1751 114.449 26.5615 114.108 27.2955C113.874 27.7959 113.872 28.3947 113.993 28.9839C112.936 28.2363 111.669 27.5351 110.486 26.9498L110.445 26.9227H110.43C108.663 26.0515 107.099 25.4469 106.748 25.3503L106.623 25.3174C106.041 25.1552 105.226 24.933 103.789 25.2865C102.491 25.6072 101.677 27.6722 101.356 28.6651C101.302 28.6149 101.247 28.5666 101.187 28.5183C101.177 28.4932 101.166 28.4681 101.158 28.4391C99.8057 24.8075 101.953 23.9981 103.676 23.3509C103.95 23.2466 104.208 23.15 104.434 23.0477C104.995 22.7888 105.341 22.4005 105.463 21.8944C105.718 20.8416 104.904 19.6555 104.535 19.1842C101.879 16.1533 99.5376 3.31114 99.2714 1.81791L99.1645 1.29248L98.8964 1.75803C94.7094 9.00589 96.5999 17.6388 97.0429 19.3812L91.1927 18.3072L91.4667 18.7071C93.0133 20.9614 95.2632 24.2511 95.813 25.0856C93.1629 26.1597 92.0243 29.3799 91.9796 29.7237L91.9738 29.7739C91.3171 29.8029 90.6818 29.8744 90.0736 29.9961C84.5402 31.0991 82.3466 35.7662 81.6472 37.7733C81.0973 37.8795 80.6757 38.1751 80.361 38.5228L80.3551 38.517C80.2522 38.629 77.6623 41.9748 78.4083 45.6624C78.4083 45.6624 83.2112 52.8292 91.6163 53.6637C91.8883 53.683 99.3064 53.6289 100.519 53.6637C101.731 53.6985 104.119 53.7178 105.351 54.0346C106.34 54.3012 107.22 54.4557 107.739 54.2645C108.257 54.0732 109.835 52.437 110.527 50.8762C110.68 50.5246 110.77 50.1982 110.824 49.9393C111.316 49.6225 112.083 48.9483 112.678 47.9554C113.361 46.8099 113.997 44.9458 113.461 42.2974C113.956 42.7204 114.69 43.3289 115.048 43.5298C115.281 43.6592 115.493 43.7075 115.679 43.6708C115.914 43.6225 116.05 43.4525 116.107 43.2883C116.247 42.6122 116.406 41.884 116.513 41.432C119.789 45.6257 124.592 57.2471 124.996 58.3288C124.996 58.3288 125.194 58.8852 125.306 59.3681C125.551 58.8736 125.625 58.4061 125.625 58.4061C127.325 49.0314 124.813 42.0308 124.03 40.1628C128.495 41.1789 132.781 41.289 136.779 40.4912C140.508 39.7475 142.89 38.4629 142.89 38.4629C142.89 38.4629 132.565 34.3811 130.605 33.5891C140.782 28.1281 145.048 20.0148 145.048 20.0148L145.056 20.0187Z" fill="black"/>
<path d="M103.326 48.5192C102.363 48.2275 100.958 47.3988 100.253 47.2597C99.5473 47.1187 97.5306 47.6055 96.5416 47.6074C95.5546 47.6074 93.909 47.8527 90.0503 47.0221C86.1917 46.1915 83.4055 43.2147 81.7774 41.4491C80.6097 40.1799 79.9297 38.0434 79.6382 36.9365C78.9096 37.1355 78.4161 37.7981 78.4161 37.7981C77.8216 38.6094 76.514 40.7768 77.0697 43.5353C77.3203 43.9661 81.5345 51.015 89.6209 51.8167C89.6851 51.8205 96.221 52.2629 98.4126 51.8263L98.4748 51.8128L98.5389 51.8167C98.6303 51.8225 98.7546 51.8263 98.9858 51.8282C99.9359 51.8418 102.162 51.8707 103.462 52.2049C104.34 52.4406 105.197 52.4986 105.619 52.429C105.965 52.2552 107.436 50.7561 108.075 49.3131C108.193 49.0427 108.285 48.751 108.349 48.4458C106.45 49.2996 104.123 48.7587 103.326 48.5192Z" fill="white"/>
<path d="M96.1355 32.2833C98.6088 30.5814 99.2694 28.3194 100.851 25.5126C101.632 24.1256 103.691 24.5177 104.119 24.5641C106.128 24.7785 112.53 28.2653 112.53 28.2653C112.53 28.2653 115.808 32.5924 112.299 37.2266C111.568 38.8705 111.189 40.6129 111.189 40.6129C111.189 40.6129 112.083 45.8788 108.354 48.4094C106.717 49.466 103.571 48.7668 100.83 47.4513C99.7124 47.1673 98.5836 47.3122 97.4858 47.3238C96.695 47.3315 93.6602 33.9851 96.1335 32.2852L96.1355 32.2833Z" fill="url(#paint5_linear_3124_29608)"/>
<path d="M105.438 24.7764C105.438 24.7764 102.04 24.2297 98.7294 33.2625C98.809 33.6546 100.311 37.0313 100.311 37.0313C100.311 37.0313 104.016 25.8756 108.36 26.0282C108.599 26.1846 105.438 24.7745 105.438 24.7745V24.7764Z" fill="white"/>
<path d="M100.367 38.1555L99.9398 37.1973C99.5823 36.3937 98.4127 33.7492 98.3311 33.3435L98.3077 33.2315L98.3485 33.1252C100.896 26.171 103.532 24.6816 104.877 24.4131C105.238 24.3416 105.464 24.3687 105.504 24.3783L105.607 24.4073C106.266 24.7009 107.982 25.462 108.407 25.6282H108.491L108.586 25.6939C108.763 25.8117 108.798 25.9913 108.772 26.1188L108.72 26.3835L108.454 26.4376C108.378 26.4511 108.314 26.4453 108.261 26.4318C108.121 26.4318 107.978 26.4472 107.836 26.4762C104.034 27.2354 100.729 37.0602 100.694 37.1606L100.365 38.1555H100.367ZM99.1568 33.2778C99.2811 33.6391 99.7513 34.7517 100.272 35.9378C101.181 33.5038 103.775 27.2875 106.989 25.9044C106.32 25.6127 105.586 25.2863 105.337 25.1742C105.285 25.1742 105.18 25.1781 105.036 25.2051C104.094 25.3944 101.644 26.5573 99.1568 33.2759V33.2778Z" fill="black"/>
<path d="M108.143 48.3379C108.143 48.3379 104.49 49.5761 101.96 47.7352C100.952 47.3237 99.2752 47.146 95.4438 47.5015C91.455 47.5865 89.1837 46.5066 88.4299 46.3482C87.678 46.1937 86.9222 46.3482 87.5808 48.2568C88.0646 49.6573 88.2939 51.2799 92.8753 51.589C97.4586 51.902 100.558 51.2297 102.058 51.7996C103.559 52.3694 105.516 52.6418 106.029 52.128C106.542 51.618 108.141 48.3379 108.141 48.3379" fill="#E0E1E0"/>
<path d="M78.2588 44.8067C78.2588 44.8067 78.9835 38.2272 80.7438 40.327C80.8817 40.5047 79.681 37.271 79.681 37.271C79.681 37.271 77.3437 38.2485 77.1707 41.4474C76.9939 44.6483 78.2607 44.8048 78.2607 44.8048" fill="#E0E1E0"/>
<path d="M79.6809 37.2711C79.6809 37.2711 83.8873 26.5596 92.9452 29.3819C102.007 32.2022 101.092 41.915 98.8322 46.9954C98.8322 46.9954 85.0103 50.4358 79.679 37.2711" fill="url(#paint6_radial_3124_29608)"/>
<path d="M113.278 28.6938C110.869 26.4066 105.485 24.247 104.795 24.0596L104.671 24.0268C104.088 23.8664 103.274 23.6443 101.836 23.9958C100.216 24.3957 99.3491 27.5174 99.2539 27.8728L100.037 28.0892C100.045 28.066 100.773 25.6919 102.343 25.2611C102.382 25.2515 102.421 25.2418 102.462 25.2341C103.639 24.9984 106.326 25.4833 112.439 29.1304C112.883 29.395 112.915 29.4163 113.074 29.3834H113.078L113.544 29.2907L113.28 28.6938H113.278Z" fill="black"/>
<path d="M89.7977 51.846C89.7977 51.846 90.6701 49.9277 91.0412 49.7365C91.762 49.3598 92.3935 49.6418 91.2394 51.8633C91.0859 52.0932 89.7977 51.846 89.7977 51.846Z" fill="black"/>
<path d="M92.4226 51.8843C92.4226 51.8843 93.2969 49.9661 93.6641 49.7748C94.3869 49.3981 95.0203 49.6782 93.8623 51.9017C93.7108 52.1315 92.4207 51.8843 92.4207 51.8843H92.4226Z" fill="black"/>
<path d="M102.059 51.7975C102.059 51.7975 102.934 49.8793 103.301 49.6881C104.024 49.3133 104.655 49.5954 103.501 51.8168C103.348 52.0467 102.057 51.7975 102.057 51.7975H102.059Z" fill="black"/>
<path d="M114.142 32.2542C114.142 32.2542 111.663 32.4783 109.085 31.9297L113.814 34.242L114.142 32.2523V32.2542Z" fill="black"/>
<path d="M108.189 47.8971C107.564 49.1353 106.311 51.2042 105.539 51.6311C105.277 51.6504 104.292 51.6929 102.695 51.4882C100.666 51.2274 98.7002 51.3085 97.9366 51.4206C97.2138 51.5307 93.1939 51.5693 92.782 51.5442H92.7315C92.6383 51.55 82.9353 51.6582 77.5709 42.8553C77.1668 41.2036 78.1519 39.183 78.5715 38.5378C79.0029 37.8772 79.3293 37.6048 79.7295 37.5102C79.7295 37.5102 80.1511 37.2938 80.1706 37.2513C80.2658 37.062 80.3454 36.8959 80.2599 36.7008L80.1783 36.523L79.916 36.4438L79.8286 36.4554C79.2146 36.5366 78.7522 36.8534 78.4122 37.2301L78.4044 37.2243C78.3015 37.3363 75.9272 40.0311 76.6714 43.7207C76.6714 43.7207 81.2605 51.5345 89.6656 52.3748C91.1247 52.5217 96.6834 52.5777 98.57 52.3748C100.455 52.172 102.168 52.4289 103.4 52.7438C104.389 53.0104 105.405 53.1302 105.823 52.9679C106.239 52.8037 107.886 51.1482 108.578 49.5854C108.922 48.7992 109.192 48.0053 109.192 47.9763L108.187 47.8971H108.189Z" fill="black"/>
<path d="M111.213 39.8341C111.181 39.7279 111.16 39.6719 111.16 39.6719L110.585 39.867L110.63 40.0099C110.742 40.3943 111.137 42.7568 110.612 44.5939C110.128 46.2919 108.757 47.4761 108.081 47.8334C106.67 48.5752 104.389 48.3917 103.12 47.9397C102.442 47.6982 101.245 47.0781 100.754 46.9545C100.089 46.7845 99.0188 46.8714 97.4372 47.024C97.3129 47.0453 84.8083 48.9712 79.9646 37.1567L79.3798 37.2978C79.3914 37.4446 79.747 40.9468 84.2526 44.5012C87.1922 46.8154 90.8469 48.0884 94.5403 48.0884C96.2132 48.0884 97.41 47.9223 98.3718 47.789C99.3549 47.6538 100.002 47.5649 100.54 47.7388C101.17 47.9416 101.706 48.2217 102.182 48.467C102.568 48.6679 102.778 48.7568 103.454 48.9809C104.331 49.2706 106.961 49.4986 108.479 48.8495C109.996 48.2005 110.696 47.0743 111.084 46.2726C111.475 45.4709 112.229 43.1103 111.213 39.8322V39.8341Z" fill="black"/>
<path d="M95.0086 27.1909L95.5973 27.3203L95.6751 27.3493C95.8713 27.0807 96.1122 26.8489 96.4134 26.6925C96.7845 26.4645 97.7715 26.4259 98.5486 26.9533C97.2469 23.1014 99.7571 22.1548 101.422 21.5289L102.157 21.2334C102.588 21.0344 102.841 20.7601 102.93 20.395C103.144 19.5219 102.345 18.4111 102.112 18.1117C99.6134 15.2643 97.4528 4.38868 96.8738 1.25928C93.7438 7.27276 94.6414 14.1053 95.1913 16.8329C95.2923 17.3294 95.3778 17.6732 95.4303 17.8741L95.6207 18.5889C95.6207 18.5889 91.7329 17.878 90.1475 17.5863C91.5949 19.6938 93.6505 22.7015 94.1479 23.4607L94.4588 23.9359L93.9303 24.1503C92.0107 24.9269 90.9149 26.9784 90.5302 27.9307C91.3365 27.6023 92.0845 27.3705 92.7549 27.2353C93.6058 27.0653 94.3636 27.0518 95.0048 27.1928L95.0086 27.1909Z" fill="white"/>
<path d="M96.6523 2.63487C96.6523 2.63487 96.1685 15.4963 99.8484 19.4583C100.4 20.1653 99.6716 21.1273 98.8012 21.9136C97.9327 22.7017 97.7171 25.0797 97.993 25.9432C98.2688 26.8086 96.8971 22.6553 97.1808 20.5034C97.3615 19.1415 96.833 19.2381 95.9199 19.1145C95.9199 19.1145 92.7607 8.27939 96.8 2.33545" fill="#E0E1E0"/>
<path d="M90.6604 18.0596C90.6604 18.0596 94.1188 20.6017 95.5196 21.4478C96.9263 22.2881 97.6705 23.6036 98.0105 25.1374C98.3563 26.6693 96.7087 24.274 94.4569 24.3145L90.6604 18.0615" fill="#E0E1E0"/>
<path d="M90.9441 27.2628C90.9441 27.2628 93.3494 23.9247 94.5948 23.9827C95.8383 24.0387 98.2689 24.8829 98.2689 24.8829L99.2986 27.4328L97.4237 29.8494C97.4237 29.8494 97.2625 26.0013 90.946 27.2628" fill="#E0E1E0"/>
<path d="M101.871 16.8273C100.651 14.6986 99.5007 11.5209 98.6089 7.44683C97.8239 3.86733 97.447 1.23438 97.3207 0.525431L97.2139 0L96.9457 0.465548C92.7607 7.71341 94.6492 16.3444 95.0941 18.0868L89.2421 17.0128L89.516 17.4126C91.0626 19.667 93.3125 22.9567 93.8623 23.7912C91.2141 24.8653 90.0736 28.0835 90.0289 28.4293L90.0115 28.5877L90.2096 28.721L90.3146 28.6746C92.9958 27.4847 94.9892 27.3379 96.118 28.2361C97.0487 28.9779 97.0856 30.2046 97.0837 30.2162L97.0953 30.7918L97.9386 29.6985L97.9191 29.6096C97.2702 26.3991 94.4394 26.4667 92.8112 26.7912C92.3585 26.882 91.9447 27.0018 91.6221 27.1138C92.8578 25.3521 93.7807 24.8324 94.3558 24.7185C94.8707 24.6161 95.1388 24.8324 95.1466 24.8401L95.4477 24.5736L91.0995 18.336C95.7761 19.1454 96.1705 19.1357 96.1705 19.1357L96.0928 18.8634C94.0022 11.0244 95.951 4.93171 96.699 3.05021C97.9289 10.5956 99.8737 14.7082 100.074 15.1854C100.577 16.385 101.576 18.0965 102.071 18.958C102.485 19.6766 102.617 20.2117 102.485 20.5034C102.388 20.7159 102.106 20.9071 101.822 20.9902L101.718 21.0211C97.0409 22.2458 97.8492 25.4911 98.1542 26.712C98.5078 28.126 99.6231 27.9444 99.7513 27.9213C99.8795 27.8961 100.027 27.8498 100.056 27.703L100.078 27.5639L99.965 27.4886C99.8815 27.4325 99.7882 27.448 99.6988 27.4634C99.5026 27.4963 99.3161 27.5291 99.1995 27.1428C97.8472 23.5111 99.9942 22.7037 101.718 22.0546C101.991 21.9503 102.25 21.8537 102.475 21.7513C103.037 21.4925 103.383 21.1042 103.507 20.5981C103.763 19.5453 102.481 17.8975 101.865 16.8235L101.871 16.8273Z" fill="black"/>
<path d="M109.365 36.5346L105.582 37.1122L104.83 36.3183L101.44 33.27L99.0033 33.9345C99.0033 33.9345 97.1614 30.6506 94.8494 29.8856C94.8494 29.8856 94.9718 27.4401 96.4115 26.6886C96.8331 26.4298 98.0532 26.4124 98.8518 27.1967C99.6523 27.9809 100.198 28.8927 100.198 28.8927C100.198 28.8927 101.405 28.2688 102.328 29.2849C102.306 29.3158 105.003 29.1844 104.686 31.4194C104.719 31.4638 108.372 31.5006 109.248 33.1638C109.515 33.8515 109.664 35.9899 109.363 36.5346H109.365Z" fill="white"/>
<path d="M101.381 32.7137C101.381 32.7137 100.62 32.507 100.563 31.3325C100.563 31.3325 100.291 31.9603 100.398 32.3003C100.398 32.3003 98.8828 31.9565 99.5609 29.9552C99.9786 28.9758 101.29 28.6764 101.889 29.3119C101.852 29.3197 100.855 29.5534 100.81 30.245C100.81 30.245 103.315 28.3441 104.317 30.6217C104.544 31.2205 104.164 31.2978 104.185 31.4001C104.206 31.5045 104.978 31.3866 104.978 31.3866C104.978 31.3866 105.052 28.8947 102.483 29.2289C102.483 29.2289 100.779 27.415 99.0946 29.7968C98.7488 30.4053 98.5428 32.6017 100.414 32.7659C100.346 32.7794 100.661 33.612 101.172 33.8322C101.131 33.8071 101.379 32.7157 101.379 32.7157L101.381 32.7137Z" fill="black"/>
<path d="M94.5151 29.6328C94.5151 29.6328 95.0106 24.759 98.7118 26.8221C99.9767 27.5388 100.569 28.8562 100.569 28.8562L100.033 29.0726C100.033 29.0726 98.6788 26.6482 96.8039 26.8433C95.7431 26.9457 94.8551 29.5323 95.44 30.0944L94.5151 29.6328Z" fill="black"/>
<path d="M99.2656 30.0868C99.2656 30.0868 97.3401 28.2439 96.1938 29.5498C96.153 29.5227 98.265 29.6039 99.0791 30.7706C99.0868 30.8054 99.2656 30.0887 99.2656 30.0887V30.0868Z" fill="black"/>
<path d="M103.072 32.7621C103.072 32.7621 102.438 33.0422 102.495 34.0795C102.551 35.115 102.813 38.1922 101.918 40.8252C101.622 41.7273 101.807 41.9919 102.003 42.2063C102.203 42.4246 102.996 42.6603 103.274 42.5328C103.548 42.4072 103.826 42.357 104.059 41.1458C104.288 39.9346 105.475 35.1748 104.504 33.4228C104.043 32.7621 103.402 32.5458 103.072 32.7621Z" fill="white"/>
<path d="M103.256 42.8537C102.843 42.9368 102.042 42.6973 101.78 42.4133C101.461 42.0617 101.325 41.6599 101.628 40.7327C102.442 38.3373 102.277 35.5402 102.205 34.3464L102.19 34.0953C102.129 32.9807 102.773 32.5769 102.918 32.4997C102.998 32.4494 103.087 32.4147 103.184 32.3953C103.695 32.293 104.325 32.6368 104.752 33.2492C105.677 34.9124 104.867 38.7662 104.477 40.6168C104.426 40.8563 104.383 41.0534 104.356 41.2002C104.125 42.3978 103.82 42.62 103.447 42.7842L103.4 42.8054C103.355 42.8267 103.307 42.8421 103.254 42.8518L103.256 42.8537ZM103.305 32.9903C103.28 32.9961 103.256 33.0038 103.239 33.0154L103.194 33.0386C103.183 33.0444 102.755 33.2665 102.8 34.0624L102.813 34.3097C102.887 35.5383 103.06 38.4165 102.207 40.922C101.955 41.7005 102.1 41.8608 102.231 42.0038C102.33 42.112 102.905 42.3051 103.136 42.2588L103.202 42.2317C103.39 42.1467 103.571 42.0675 103.76 41.0881C103.787 40.9394 103.831 40.7366 103.88 40.4932C104.226 38.8512 105.036 35.007 104.238 33.5679C103.938 33.141 103.528 32.9459 103.305 32.9884V32.9903Z" fill="black"/>
<path d="M103.472 31.2556C103.472 31.2556 104.078 31.5936 103.927 32.6175C103.775 33.6432 102.893 34.356 103.542 37.0605C103.754 37.9877 103.548 38.2349 103.326 38.432C103.111 38.629 102.297 38.7913 102.034 38.6406C101.774 38.4899 101.502 38.4127 101.385 37.1879C101.263 35.9594 100.859 33.4365 101.986 31.783C102.504 31.1667 103.167 31.0103 103.472 31.2575V31.2556Z" fill="white"/>
<path d="M102.815 38.9516C102.58 38.998 102.149 39.054 101.883 38.8995L101.836 38.8724C101.479 38.6735 101.199 38.4223 101.082 37.215L101.043 36.8499C100.894 35.488 100.647 33.2067 101.733 31.6111C102.075 31.2015 102.475 30.9446 102.874 30.8654C103.175 30.8055 103.451 30.8557 103.649 31.0084C103.789 31.0991 104.391 31.5628 104.226 32.6638C104.181 32.9729 104.078 33.2472 103.971 33.537C103.695 34.2749 103.385 35.1114 103.835 36.9909C104.055 37.9568 103.88 38.3431 103.528 38.658C103.344 38.8261 102.998 38.9149 102.811 38.9536L102.815 38.9516ZM102.994 31.4584C102.734 31.5106 102.452 31.6999 102.219 31.9762C101.276 33.3612 101.51 35.5035 101.65 36.7842L101.688 37.1551C101.784 38.148 101.955 38.2427 102.137 38.3451L102.19 38.376C102.227 38.3934 102.409 38.4146 102.697 38.3567C102.947 38.3084 103.095 38.233 103.122 38.206C103.262 38.0824 103.431 37.9317 103.247 37.1242C102.753 35.0669 103.113 34.0991 103.402 33.3226C103.503 33.0521 103.59 32.8184 103.625 32.5711C103.746 31.7849 103.338 31.5241 103.32 31.5125L103.284 31.4855C103.227 31.443 103.12 31.4295 102.996 31.4546L102.994 31.4584Z" fill="black"/>
<path d="M98.8284 33.3048C98.8284 33.3048 100.427 33.726 100.866 33.2295C101.037 33.1715 101.426 33.7047 101.426 33.7047C101.426 33.7047 100.493 34.8116 99.3491 34.3499C99.3219 34.3557 98.8284 33.3048 98.8284 33.3048Z" fill="black"/>
<path d="M103.655 31.3963C103.655 31.3963 108.949 30.6719 109.946 33.8167C110.212 34.63 110.292 35.4066 109.936 36.3203C109.946 36.3705 109.118 36.0749 109.118 36.0749C109.118 36.0749 110.777 31.3267 104.024 31.8328C104.004 31.8618 103.655 31.3963 103.655 31.3963Z" fill="black"/>
<path d="M104.898 35.6426C104.898 35.6426 105.454 36.6297 106.077 36.7842C106.081 36.8093 105.359 37.4391 105.359 37.4391L104.803 36.707L104.896 35.6426H104.898Z" fill="black"/>
<path d="M104.659 33.3164C104.659 33.3164 107.488 33.9771 107.735 35.4587C107.744 35.5089 105.395 33.782 104.838 34.5836C104.867 34.6029 104.659 33.3183 104.659 33.3183V33.3164Z" fill="black"/>
<path d="M127.828 31.6105L128.744 31.145C129.769 30.6215 130.797 30.0265 131.8 29.3736L131.817 29.362L131.837 29.3523C133.469 28.4985 134.936 27.3742 136.199 26.0143L136.23 25.9853C139.282 23.25 141.139 20.6711 141.854 19.5874C134.508 22.514 128.46 24.4612 123.869 25.3768C118.085 26.532 116 25.8018 114.879 25.4096C114.582 25.3053 114.405 25.2474 114.255 25.2493C114.014 25.2512 113.793 25.2725 113.597 25.3131C113.08 25.4154 112.728 25.6395 112.52 25.993C112.244 26.4624 112.291 27.0806 112.38 27.5133L112.534 28.2686C112.534 28.2686 115.812 32.5957 112.303 37.2299C112.167 37.4231 111.716 37.7669 111.339 37.5197C110.678 37.0831 109.594 36.4514 108.665 36.3375C107.342 36.1752 105.693 36.9015 105.102 38.8159C104.729 40.0251 105.009 41.3889 105.687 42.1442C106.445 42.9961 107.917 43.369 109 42.9092C109.983 42.492 110.453 41.5377 110.587 41.0837C110.733 40.5911 110.709 39.9788 110.709 39.9788C110.709 39.9788 113.35 42.0824 113.657 41.926C113.964 41.7695 114.451 39.4031 114.451 39.4031C114.451 39.4031 115.641 40.624 116.085 41.6265L119.192 47.3561C120.976 50.9877 122.577 54.7276 123.206 56.2691C123.884 52.0869 123.82 47.9433 123.014 43.9427C122.513 41.4662 121.864 39.7508 121.518 38.9492L121.158 38.105L122.056 38.3098C126.478 39.3123 130.727 39.4205 134.689 38.6304C137.65 38.0393 139.661 37.0696 140.413 36.5982C137.221 35.3426 130.646 32.7483 128.779 31.9988L127.827 31.6144L127.828 31.6105Z" fill="white"/>
<path d="M112.8 26.9127C112.8 26.9127 126.571 31.9332 140.31 20.6133C141.448 22.9333 129.645 31.4522 127.828 31.6106C126.012 31.771 116.913 32.3041 112.779 27.5192C112.8 27.6158 112.8 26.9127 112.8 26.9127Z" fill="#E0E1E0"/>
<path d="M140.02 36.6623C140.02 36.6623 118.716 35.6057 112.827 28.3057C113.086 28.5607 114.706 33.0365 113.525 34.804C113.564 35.001 115.582 33.0461 119.695 37.1298C119.775 37.35 130.776 41.5728 140.022 36.6623" fill="#E0E1E0"/>
<path d="M116.22 34.7364C116.22 34.7364 115.841 34.5297 115.4 34.6031C114.56 34.7441 113.653 35.4685 115.817 37.5123C119.116 40.634 123.844 48.7782 123.237 55.4349C123.375 55.6107 116.905 42.2315 114.455 39.5889L113.906 41.9456L111.615 40.5992L110.863 37.379C110.863 37.379 112.819 38.9302 113.529 34.804C113.529 34.804 115.172 33.108 116.223 34.7364H116.22Z" fill="#E0E1E0"/>
<path d="M106.126 37.5682C106.126 37.5682 105.533 39.6004 106.324 40.7072C106.89 41.4973 107.694 41.9358 108.63 41.6016C109.567 41.2674 110.468 39.1136 108.215 38.6442C108.168 38.6538 108.994 38.3505 109.707 38.7659C110.507 39.2314 111.131 40.5102 109.598 42.328C109.617 42.4284 107.171 44.5495 105.094 41.3911C105.114 41.4877 104.5 38.4471 105.842 37.4639" fill="#E0E1E0"/>
<path d="M143.102 18.7241L142.394 19.0081C134.829 22.0467 128.609 24.0634 123.91 25.0023C118.227 26.1381 116.192 25.2727 115.159 25.0621C113.529 24.7318 112.495 25.2688 112.153 26.0048C111.704 26.9707 112.102 28.3113 112.617 29.2385C114.531 32.903 112.761 36.4227 112.118 37.0389C112.031 37.1239 111.947 37.1702 111.865 37.1876C111.626 37.2359 111.436 37.0041 111.24 36.8747C111.042 36.7453 110.507 36.2662 109.413 35.959C108.768 35.818 108.147 35.8045 107.568 35.9204C105.302 36.3724 104.234 38.6074 104.51 40.5005C104.649 41.5862 105.114 42.4361 105.852 42.9635C106.588 43.4889 107.577 43.6763 108.566 43.4793C109.163 43.3614 109.695 43.1084 110.064 42.7723C110.659 42.2314 110.995 41.505 111.014 40.7266C111.063 40.7439 111.17 40.7845 111.31 40.8347C111.782 41.2462 112.689 42.0131 113.101 42.241C113.334 42.3705 113.546 42.4207 113.731 42.382C113.966 42.3357 114.104 42.1657 114.16 41.9996C114.298 41.3254 114.459 40.5971 114.566 40.1451C117.84 44.337 122.645 55.9583 123.049 57.042C123.049 57.042 123.247 57.5983 123.36 58.0812C123.605 57.5867 123.678 57.1212 123.678 57.1212C125.378 47.7465 122.864 40.7459 122.083 38.876C126.548 39.892 130.834 40.0041 134.833 39.2043C138.561 38.4606 141.386 36.5386 141.386 36.5386C141.386 36.5386 131.061 32.4568 129.101 31.6648C139.278 26.2057 143.102 18.7261 143.102 18.7261V18.7241ZM127.751 31.1935C127.193 31.4388 127.108 31.4755 127.059 31.6223L127.026 31.7401L127.131 31.9236L127.222 31.9565C133.599 34.3209 137.93 36.0788 139.381 36.6776C138.017 37.3113 136.519 37.7923 134.92 38.111C127.659 39.5598 120.414 37.2475 120.342 37.2224L119.589 36.979L120.043 37.6242C123.919 43.1219 123.445 52.2184 123.16 55.2493C118.122 43.0736 114.916 39.0672 114.368 39.0691L114.3 39.0769C114.03 39.1309 113.993 39.413 113.962 39.6622C113.946 39.7993 113.785 40.3615 113.733 40.5701C113.667 40.8193 113.525 41.3872 113.412 41.5263C113.346 41.507 113.243 41.4567 113.121 41.3891C112.178 40.7246 110.737 39.1676 110.268 38.6499C110.235 38.6132 110.204 38.5765 110.171 38.5398C110.136 38.5012 110.111 38.4742 110.111 38.4742L110.115 38.4819C110.08 38.4471 110.049 38.4104 110.014 38.3776C109.485 37.885 108.932 37.6918 108.364 37.8058C107.733 37.9313 107.272 38.2578 107.035 38.5823C106.676 39.1039 106.606 39.6776 106.757 40.0775C106.967 40.6261 107.494 40.8058 107.855 40.883C108.207 40.9603 108.448 40.5508 108.09 40.4349C107.667 40.2977 107.581 39.9925 107.591 39.7414C107.608 39.2488 107.793 39.0112 108.036 38.8431C108.29 38.6635 108.648 38.6596 108.844 38.7369C109.559 39.0286 110.055 39.8631 110.041 40.6319C110.027 41.3756 109.551 42.0652 108.819 42.4207C108.615 42.5018 108.413 42.5617 108.221 42.6023C107.125 42.8206 106.462 42.3067 106.099 41.8373C105.397 40.9313 105.24 39.4342 105.747 38.4085C106.076 37.601 106.662 37.1084 107.498 36.9404C108.677 36.7047 110.09 37.1799 110.713 37.5933C111.197 37.914 111.601 38.111 112.001 38.0318C112.435 37.9449 112.761 37.5662 113.22 36.8766C115.557 32.8161 114.111 29.9108 113.334 28.3499C113.169 28.0196 113.027 27.7318 112.977 27.5406C112.866 27.1117 112.922 26.6597 113.128 26.3313C113.235 26.1632 113.428 25.9488 113.752 25.8851C113.94 25.8464 114.539 25.8097 114.78 25.8908C117.743 26.6635 121.188 26.6481 125.783 25.7305C128.798 25.1278 133.719 23.8336 140.166 21.0731C137.158 25.4929 132.987 28.8947 127.751 31.1896V31.1935Z" fill="black"/>
<path d="M89.7434 40.3019L97.1129 37.98C97.1129 37.98 97.7657 40.7095 96.3454 41.8087C94.9252 42.9098 91.7737 43.9123 89.7415 40.3019" fill="white"/>
<path d="M95.9685 38.4106C95.9685 38.4106 96.6641 40.8272 94.2335 41.513C92.4751 41.967 91.6844 40.9316 91.6436 39.5465L95.9665 38.4106" fill="#F8DD3E"/>
<path d="M98.4748 37.1201C98.4748 37.1201 97.3285 37.2244 96.7825 37.3345C93.3066 38.028 88.8923 40.5992 88.8477 40.6262L89.0497 40.9759C91.424 39.6681 96.1977 38.6732 97.1303 38.4878L97.4373 38.4279L97.48 38.3854C97.8356 38.0416 98.572 37.5625 98.572 37.5625L98.4748 37.122V37.1201Z" fill="black"/>
<path d="M89.7433 40.3016C89.7433 40.3016 90.7983 43.8347 94.6161 43.0736C98.434 42.3106 97.445 38.082 97.445 38.082H96.763C96.763 38.082 97.818 41.9571 94.4607 42.6274C91.1033 43.2977 89.7452 40.3016 89.7452 40.3016H89.7433Z" fill="black"/>
<path d="M96.0112 38.9995C96.0112 38.9995 96.254 41.2133 93.9478 41.673C91.6396 42.1328 91.2627 39.7046 91.2627 39.7046L91.6435 39.5462C91.6435 39.5462 91.9 41.7947 93.9284 41.3891C95.9587 40.9834 96.0092 39.0014 96.0092 39.0014L96.0112 38.9995Z" fill="black"/>
<path d="M95.168 39.0134C95.3059 39.6991 94.8144 40.3772 94.0722 40.5259C93.3261 40.6746 92.6072 40.2381 92.4693 39.5523C92.3294 38.8646 93.0774 38.9554 93.8235 38.8067C94.5696 38.6579 95.03 38.3276 95.168 39.0153V39.0134Z" fill="black"/>
<path d="M95.2283 39.1562C95.271 39.3629 95.135 39.5658 94.9271 39.6063C94.7173 39.6488 94.5133 39.5136 94.4725 39.3069C94.4297 39.0983 94.5657 38.8954 94.7756 38.8529C94.9834 38.8104 95.1875 38.9476 95.2283 39.1543V39.1562Z" fill="white"/>
<path d="M97.2858 38.9126C97.2858 38.9126 98.2339 38.8199 99.3783 37.7594C99.3705 37.6647 98.3777 39.2854 97.0837 39.7896C97.006 39.9886 97.2858 38.9126 97.2858 38.9126Z" fill="black"/>
<path d="M99.522 33.5251C97.9307 30.7106 95.1776 28.9276 91.7561 28.5045C90.4738 28.4118 89.2536 28.4775 88.1248 28.7035C81.0604 30.1137 79.438 37.3306 79.4225 37.404L79.9937 37.6011C81.5111 34.5508 84.2293 30.7376 88.5697 29.8703C89.5606 29.6713 90.6137 29.6327 91.6745 29.7505C94.7074 30.2972 96.934 31.6397 98.2921 33.7376C100.808 37.6223 99.52 42.8592 99.5064 42.9114C99.5064 42.9114 99.3801 43.1355 99.6832 43.2494C99.9883 43.3634 100.08 43.1104 100.08 43.1104C101.393 40.2128 101.173 36.4478 99.52 33.5232L99.522 33.5251Z" fill="black"/>
</g>
<defs>
<linearGradient id="paint0_linear_3124_29608" x1="59.0452" y1="86.9509" x2="59.0452" y2="62.9781" gradientUnits="userSpaceOnUse">
<stop offset="0.2" stop-color="#F04C29"/>
<stop offset="0.8" stop-color="#FED109"/>
</linearGradient>
<linearGradient id="paint1_linear_3124_29608" x1="87.1612" y1="86.9512" x2="87.1612" y2="62.9784" gradientUnits="userSpaceOnUse">
<stop offset="0.2" stop-color="#F04C29"/>
<stop offset="0.8" stop-color="#FED109"/>
</linearGradient>
<linearGradient id="paint2_linear_3124_29608" x1="113.311" y1="88.4962" x2="113.311" y2="66.8299" gradientUnits="userSpaceOnUse">
<stop offset="0.2" stop-color="#439F46"/>
<stop offset="0.8" stop-color="#FBEF49"/>
</linearGradient>
<linearGradient id="paint3_linear_3124_29608" x1="135.538" y1="88.4963" x2="135.538" y2="66.83" gradientUnits="userSpaceOnUse">
<stop offset="0.2" stop-color="#439F46"/>
<stop offset="0.8" stop-color="#FBEF49"/>
</linearGradient>
<linearGradient id="paint4_linear_3124_29608" x1="25.1589" y1="86.9507" x2="25.1589" y2="62.9779" gradientUnits="userSpaceOnUse">
<stop offset="0.2" stop-color="#F04C29"/>
<stop offset="0.8" stop-color="#FED109"/>
</linearGradient>
<linearGradient id="paint5_linear_3124_29608" x1="102.404" y1="24.517" x2="107.254" y2="48.8215" gradientUnits="userSpaceOnUse">
<stop stop-color="#F6871F"/>
<stop offset="0.8" stop-color="#ED2224"/>
</linearGradient>
<radialGradient id="paint6_radial_3124_29608" cx="0" cy="0" r="1" gradientUnits="userSpaceOnUse" gradientTransform="translate(90.0824 37.3547) rotate(-11.2963) scale(9.96258 9.90964)">
<stop stop-color="#FAED24"/>
<stop offset="1" stop-color="#ED2224"/>
</radialGradient>
<clipPath id="clip0_3124_29608">
<rect width="158" height="100" fill="white"/>
</clipPath>
</defs>
</svg>
