<svg width="24" height="25" viewBox="0 0 24 25" fill="none" xmlns="http://www.w3.org/2000/svg">
<g clipPath="url(#clip0_1015_499)">
<path d="M12 2.92559C15.2063 2.92559 15.5859 2.93965 16.8469 2.9959C18.0188 3.04746 18.6516 3.24434 19.0734 3.4084C19.6313 3.62402 20.0344 3.88652 20.4516 4.30371C20.8734 4.72559 21.1313 5.12402 21.3469 5.68184C21.5109 6.10371 21.7078 6.74121 21.7594 7.9084C21.8156 9.17402 21.8297 9.55371 21.8297 12.7553C21.8297 15.9615 21.8156 16.3412 21.7594 17.6021C21.7078 18.774 21.5109 19.4068 21.3469 19.8287C21.1313 20.3865 20.8687 20.7896 20.4516 21.2068C20.0297 21.6287 19.6313 21.8865 19.0734 22.1021C18.6516 22.2662 18.0141 22.4631 16.8469 22.5146C15.5813 22.5709 15.2016 22.585 12 22.585C8.79375 22.585 8.41406 22.5709 7.15313 22.5146C5.98125 22.4631 5.34844 22.2662 4.92656 22.1021C4.36875 21.8865 3.96563 21.624 3.54844 21.2068C3.12656 20.785 2.86875 20.3865 2.65313 19.8287C2.48906 19.4068 2.29219 18.7693 2.24063 17.6021C2.18438 16.3365 2.17031 15.9568 2.17031 12.7553C2.17031 9.54902 2.18438 9.16934 2.24063 7.9084C2.29219 6.73652 2.48906 6.10371 2.65313 5.68184C2.86875 5.12402 3.13125 4.7209 3.54844 4.30371C3.97031 3.88184 4.36875 3.62402 4.92656 3.4084C5.34844 3.24434 5.98594 3.04746 7.15313 2.9959C8.41406 2.93965 8.79375 2.92559 12 2.92559ZM12 0.764648C8.74219 0.764648 8.33438 0.778711 7.05469 0.834961C5.77969 0.891211 4.90313 1.09746 4.14375 1.39277C3.35156 1.70215 2.68125 2.10996 2.01563 2.78027C1.34531 3.4459 0.9375 4.11621 0.628125 4.90371C0.332812 5.66777 0.126563 6.53965 0.0703125 7.81465C0.0140625 9.09902 0 9.50684 0 12.7646C0 16.0225 0.0140625 16.4303 0.0703125 17.71C0.126563 18.985 0.332812 19.8615 0.628125 20.6209C0.9375 21.4131 1.34531 22.0834 2.01563 22.749C2.68125 23.4146 3.35156 23.8271 4.13906 24.1318C4.90313 24.4271 5.775 24.6334 7.05 24.6896C8.32969 24.7459 8.7375 24.76 11.9953 24.76C15.2531 24.76 15.6609 24.7459 16.9406 24.6896C18.2156 24.6334 19.0922 24.4271 19.8516 24.1318C20.6391 23.8271 21.3094 23.4146 21.975 22.749C22.6406 22.0834 23.0531 21.4131 23.3578 20.6256C23.6531 19.8615 23.8594 18.9896 23.9156 17.7146C23.9719 16.435 23.9859 16.0271 23.9859 12.7693C23.9859 9.51152 23.9719 9.10371 23.9156 7.82402C23.8594 6.54902 23.6531 5.67246 23.3578 4.91309C23.0625 4.11621 22.6547 3.4459 21.9844 2.78027C21.3188 2.11465 20.6484 1.70215 19.8609 1.39746C19.0969 1.10215 18.225 0.895898 16.95 0.839648C15.6656 0.778711 15.2578 0.764648 12 0.764648Z" fill="#D0D5DD"/>
<path d="M12 6.60059C8.59688 6.60059 5.83594 9.36152 5.83594 12.7646C5.83594 16.1678 8.59688 18.9287 12 18.9287C15.4031 18.9287 18.1641 16.1678 18.1641 12.7646C18.1641 9.36152 15.4031 6.60059 12 6.60059ZM12 16.7631C9.79219 16.7631 8.00156 14.9725 8.00156 12.7646C8.00156 10.5568 9.79219 8.76621 12 8.76621C14.2078 8.76621 15.9984 10.5568 15.9984 12.7646C15.9984 14.9725 14.2078 16.7631 12 16.7631Z" fill="#D0D5DD"/>
<path d="M19.8469 6.35679C19.8469 7.15367 19.2 7.79585 18.4078 7.79585C17.6109 7.79585 16.9688 7.14898 16.9688 6.35679C16.9688 5.55991 17.6156 4.91772 18.4078 4.91772C19.2 4.91772 19.8469 5.5646 19.8469 6.35679Z" fill="#D0D5DD"/>
</g>
<defs>
<clipPath id="clip0_1015_499">
<rect width="24" height="24" fill="white" transform="translate(0 0.764648)"/>
</clipPath>
</defs>
</svg>
