<svg width="24" height="25" viewBox="0 0 24 25" fill="none" xmlns="http://www.w3.org/2000/svg">
<path d="M23.7609 7.9647C23.7609 7.9647 23.5266 6.31001 22.8047 5.58345C21.8906 4.6272 20.8688 4.62251 20.4 4.56626C17.0438 4.32251 12.0047 4.32251 12.0047 4.32251H11.9953C11.9953 4.32251 6.95625 4.32251 3.6 4.56626C3.13125 4.62251 2.10938 4.6272 1.19531 5.58345C0.473438 6.31001 0.24375 7.9647 0.24375 7.9647C0.24375 7.9647 0 9.91001 0 11.8506V13.6694C0 15.61 0.239062 17.5553 0.239062 17.5553C0.239062 17.5553 0.473437 19.21 1.19062 19.9366C2.10469 20.8928 3.30469 20.86 3.83906 20.9631C5.76094 21.1459 12 21.2022 12 21.2022C12 21.2022 17.0438 21.1928 20.4 20.9538C20.8688 20.8975 21.8906 20.8928 22.8047 19.9366C23.5266 19.21 23.7609 17.5553 23.7609 17.5553C23.7609 17.5553 24 15.6147 24 13.6694V11.8506C24 9.91001 23.7609 7.9647 23.7609 7.9647ZM9.52031 15.8772V9.13188L16.0031 12.5163L9.52031 15.8772Z" fill="#D0D5DD"/>
</svg>
