<svg width="24" height="25" viewBox="0 0 24 25" fill="none" xmlns="http://www.w3.org/2000/svg">
<g clipPath="url(#clip0_1015_494)">
<path d="M24 12.7646C24 6.13723 18.6274 0.764648 12 0.764648C5.37258 0.764648 0 6.13723 0 12.7646C0 18.7541 4.3882 23.7186 10.125 24.6189V16.2334H7.07812V12.7646H10.125V10.1209C10.125 7.1134 11.9166 5.45215 14.6576 5.45215C15.9701 5.45215 17.3438 5.68652 17.3438 5.68652V8.63965H15.8306C14.34 8.63965 13.875 9.56473 13.875 10.5146V12.7646H17.2031L16.6711 16.2334H13.875V24.6189C19.6118 23.7186 24 18.7541 24 12.7646Z" fill="#D0D5DD"/>
</g>
<defs>
<clipPath id="clip0_1015_494">
<rect width="24" height="24" fill="white" transform="translate(0 0.764648)"/>
</clipPath>
</defs>
</svg>
