<svg width="280" height="418" viewBox="0 0 280 418" fill="none" xmlns="http://www.w3.org/2000/svg">
<g style="mix-blend-mode:soft-light" clip-path="url(#clip0_3337_74266)">
<g opacity="0.3" filter="url(#filter0_f_3337_74266)">
<path style="mix-blend-mode:overlay" d="M271.937 315.057C276.39 287.185 264.882 259.196 246.232 252.54C227.583 245.885 208.854 263.084 204.401 290.956C199.948 318.828 211.456 346.818 230.106 353.473C248.755 360.128 267.483 342.929 271.937 315.057Z" fill="url(#paint0_radial_3337_74266)"/>
<path style="mix-blend-mode:overlay" d="M263.754 182.09C268.864 150.594 255.922 118.871 234.848 111.234C213.774 103.597 192.547 122.938 187.437 154.434C182.327 185.929 195.269 217.653 216.343 225.29C237.417 232.927 258.643 213.586 263.754 182.09Z" fill="url(#paint1_radial_3337_74266)"/>
<path style="mix-blend-mode:overlay" d="M206.427 267.961C221.184 267.961 233.147 250.082 233.147 228.027C233.147 205.973 221.184 188.094 206.427 188.094C191.67 188.094 179.707 205.973 179.707 228.027C179.707 250.082 191.67 267.961 206.427 267.961Z" fill="url(#paint2_radial_3337_74266)"/>
<path style="mix-blend-mode:overlay" d="M119.26 281.252C134.017 281.252 145.98 263.373 145.98 241.318C145.98 219.264 134.017 201.385 119.26 201.385C104.503 201.385 92.54 219.264 92.54 241.318C92.54 263.373 104.503 281.252 119.26 281.252Z" fill="url(#paint3_radial_3337_74266)"/>
<path style="mix-blend-mode:overlay" d="M173.348 280.442C188.105 280.442 200.068 262.564 200.068 240.509C200.068 218.455 188.105 200.576 173.348 200.576C158.591 200.576 146.628 218.455 146.628 240.509C146.628 262.564 158.591 280.442 173.348 280.442Z" fill="url(#paint4_radial_3337_74266)"/>
<path style="mix-blend-mode:overlay" d="M148.728 227.288C163.485 227.288 175.447 209.409 175.447 187.355C175.447 165.3 163.485 147.421 148.728 147.421C133.971 147.421 122.008 165.3 122.008 187.355C122.008 209.409 133.971 227.288 148.728 227.288Z" fill="url(#paint5_radial_3337_74266)"/>
<path style="mix-blend-mode:overlay" d="M154.733 150.719C169.489 150.719 181.452 132.84 181.452 110.786C181.452 88.7314 169.489 70.8527 154.733 70.8527C139.976 70.8527 128.013 88.7314 128.013 110.786C128.013 132.84 139.976 150.719 154.733 150.719Z" fill="url(#paint6_radial_3337_74266)"/>
<path style="mix-blend-mode:overlay" d="M195.364 348.602C201.635 310.275 185.929 271.607 160.283 262.236C134.638 252.864 108.765 276.337 102.495 314.665C96.224 352.992 111.93 391.66 137.575 401.031C163.221 410.403 189.094 386.93 195.364 348.602Z" fill="url(#paint7_radial_3337_74266)"/>
<path style="mix-blend-mode:overlay" d="M133.842 154.988C142.587 141.918 142.587 120.728 133.842 107.658C125.097 94.5878 110.918 94.5878 102.173 107.658C93.4273 120.728 93.4273 141.918 102.173 154.988C110.918 168.058 125.097 168.058 133.842 154.988Z" fill="url(#paint8_radial_3337_74266)"/>
<path style="mix-blend-mode:overlay" d="M149.155 38.6941C156.305 38.6941 162.101 30.0321 162.101 19.3471C162.101 8.66197 156.305 0 149.155 0C142.006 0 136.21 8.66197 136.21 19.3471C136.21 30.0321 142.006 38.6941 149.155 38.6941Z" fill="url(#paint9_radial_3337_74266)"/>
<path style="mix-blend-mode:overlay" d="M217.466 66.2558C231.294 93.3876 210.773 124.057 192.619 103.391C178.791 76.2591 199.312 45.5896 217.466 66.2558Z" fill="url(#paint10_radial_3337_74266)"/>
<path style="mix-blend-mode:overlay" d="M172.88 325.092C182.248 325.092 189.844 313.741 189.844 299.739C189.844 285.737 182.248 274.386 172.88 274.386C163.511 274.386 155.916 285.737 155.916 299.739C155.916 313.741 163.511 325.092 172.88 325.092Z" fill="url(#paint11_radial_3337_74266)"/>
<path style="mix-blend-mode:overlay" d="M74.8468 344.05C95.3647 344.05 111.998 319.191 111.998 288.527C111.998 257.863 95.3647 233.004 74.8468 233.004C54.3289 233.004 37.6958 257.863 37.6958 288.527C37.6958 319.191 54.3289 344.05 74.8468 344.05Z" fill="url(#paint12_radial_3337_74266)"/>
<path style="mix-blend-mode:overlay" d="M64.6898 169.117C89.4398 169.117 109.504 139.131 109.504 102.142C109.504 65.1523 89.4398 35.1664 64.6898 35.1664C39.9398 35.1664 19.876 65.1523 19.876 102.142C19.876 139.131 39.9398 169.117 64.6898 169.117Z" fill="url(#paint13_radial_3337_74266)"/>
<path style="mix-blend-mode:overlay" d="M95.0645 268.636C112.565 242.48 112.565 200.074 95.0645 173.918C77.5636 147.763 49.1891 147.763 31.6882 173.918C14.1873 200.074 14.1873 242.48 31.6882 268.636C49.1891 294.791 77.5636 294.791 95.0645 268.636Z" fill="url(#paint14_radial_3337_74266)"/>
</g>
<g opacity="0.4">
<g opacity="0.41" filter="url(#filter1_f_3337_74266)">
<path style="mix-blend-mode:color-dodge" fill-rule="evenodd" clip-rule="evenodd" d="M224.554 127.365C224.554 145.333 214.812 159.893 202.789 159.893C190.767 159.893 181.024 145.333 181.024 127.365C181.024 109.397 190.767 94.8365 202.789 94.8365C214.812 94.8365 224.554 109.397 224.554 127.365Z" fill="url(#paint15_radial_3337_74266)"/>
<g style="mix-blend-mode:overlay">
<path fill-rule="evenodd" clip-rule="evenodd" d="M194.785 117.232L201.338 125.556L201.927 106.149L202.482 125.536L208.74 117.681L202.957 126.196L217.935 126.965L202.936 127.695L209.068 136.689L202.515 128.374L201.927 147.781L201.372 128.394L195.106 136.239L200.884 127.735L185.919 126.965L200.91 126.236L194.785 117.232Z" fill="white"/>
</g>
</g>
<g opacity="0.41" filter="url(#filter2_f_3337_74266)">
<path style="mix-blend-mode:color-dodge" fill-rule="evenodd" clip-rule="evenodd" d="M243.677 195.819C243.677 213.787 233.935 228.347 221.912 228.347C209.89 228.347 200.147 213.787 200.147 195.819C200.147 177.851 209.89 163.291 221.912 163.291C233.935 163.291 243.677 177.851 243.677 195.819Z" fill="url(#paint16_radial_3337_74266)"/>
<g style="mix-blend-mode:overlay">
<path fill-rule="evenodd" clip-rule="evenodd" d="M213.902 185.696L220.461 194.01L221.05 174.603L221.598 193.99L227.863 186.135L222.079 194.65L237.057 195.419L222.059 196.149L228.184 205.143L221.638 196.838L221.05 216.245L220.495 196.858L214.229 204.703L220.007 196.199L205.035 195.419L220.033 194.7L213.902 185.696Z" fill="white"/>
</g>
</g>
<g opacity="0.41" filter="url(#filter3_f_3337_74266)">
<path style="mix-blend-mode:color-dodge" fill-rule="evenodd" clip-rule="evenodd" d="M133.368 78.1577C133.368 96.1257 123.626 110.686 111.603 110.686C99.5808 110.686 89.8384 96.1257 89.8384 78.1577C89.8384 60.1897 99.5808 45.6295 111.603 45.6295C123.626 45.6295 133.368 60.1897 133.368 78.1577Z" fill="url(#paint17_radial_3337_74266)"/>
<g style="mix-blend-mode:overlay">
<path fill-rule="evenodd" clip-rule="evenodd" d="M103.593 68.0345L110.146 76.3489L110.734 56.9419L111.289 76.3289L117.548 68.4742L111.764 76.9885L126.742 77.758L111.751 78.4875L117.876 87.4815L111.323 79.167L110.734 98.574L110.179 79.187L103.914 87.0418L109.698 78.5275L94.7266 77.758L109.718 77.0384L103.593 68.0345Z" fill="white"/>
</g>
</g>
<g opacity="0.41" filter="url(#filter4_f_3337_74266)">
<path style="mix-blend-mode:color-dodge" fill-rule="evenodd" clip-rule="evenodd" d="M98.116 196.319C98.116 214.287 88.3735 228.847 76.351 228.847C64.3284 228.847 54.5859 214.287 54.5859 196.319C54.5859 178.351 64.3284 163.791 76.351 163.791C88.3735 163.791 98.116 178.351 98.116 196.319Z" fill="url(#paint18_radial_3337_74266)"/>
<g style="mix-blend-mode:overlay">
<path fill-rule="evenodd" clip-rule="evenodd" d="M68.3401 186.196L74.893 194.51L75.4814 175.103L76.0364 194.49L82.3018 186.635L76.5179 195.16L91.496 195.919L76.4978 196.649L82.6228 205.643L76.0699 197.338L75.4814 216.745L74.9265 197.358L68.6678 205.203L74.445 196.699L59.4736 195.919L74.4718 195.2L68.3401 186.196Z" fill="white"/>
</g>
</g>
<g opacity="0.41" filter="url(#filter5_f_3337_74266)">
<path style="mix-blend-mode:color-dodge" fill-rule="evenodd" clip-rule="evenodd" d="M76.7859 315.129C76.7859 333.097 67.0434 347.657 55.0209 347.657C42.9983 347.657 33.2559 333.097 33.2559 315.129C33.2559 297.161 42.9983 282.601 55.0209 282.601C67.0434 282.601 76.7859 297.161 76.7859 315.129Z" fill="url(#paint19_radial_3337_74266)"/>
<g style="mix-blend-mode:overlay">
<path fill-rule="evenodd" clip-rule="evenodd" d="M47.01 304.996L53.5629 313.32L54.1581 293.913L54.7064 313.291L60.9717 305.446L55.1878 313.96L70.1659 314.73L55.1677 315.459L61.2927 324.453L54.7465 316.139L54.1581 335.546L53.5964 316.159L47.3377 324.003L53.1149 315.499L38.1436 314.73L53.1417 314L47.01 304.996Z" fill="white"/>
</g>
</g>
<g opacity="0.41" filter="url(#filter6_f_3337_74266)">
<path style="mix-blend-mode:color-dodge" fill-rule="evenodd" clip-rule="evenodd" d="M173.08 133.641C173.08 151.609 163.338 166.169 151.315 166.169C139.293 166.169 129.55 151.609 129.55 133.641C129.55 115.673 139.293 101.112 151.315 101.112C163.338 101.112 173.08 115.673 173.08 133.641Z" fill="url(#paint20_radial_3337_74266)"/>
<g style="mix-blend-mode:overlay">
<path fill-rule="evenodd" clip-rule="evenodd" d="M143.305 123.517L149.858 131.832L150.453 112.425L151.001 131.812L157.267 123.957L151.483 132.471L166.461 133.241L151.463 133.97L157.588 142.964L151.041 134.65L150.453 154.057L149.891 134.67L143.633 142.515L149.41 134.01L134.438 133.241L149.437 132.511L143.305 123.517Z" fill="white"/>
</g>
</g>
<g opacity="0.41" filter="url(#filter7_f_3337_74266)">
<path style="mix-blend-mode:color-dodge" fill-rule="evenodd" clip-rule="evenodd" d="M193.923 55.2031C193.923 70.1431 185.819 82.265 175.815 82.265C165.812 82.265 157.708 70.1531 157.708 55.2031C157.708 40.2531 165.812 28.1412 175.815 28.1412C185.819 28.1412 193.923 40.2531 193.923 55.2031Z" fill="url(#paint21_radial_3337_74266)"/>
<g style="mix-blend-mode:overlay">
<path fill-rule="evenodd" clip-rule="evenodd" d="M169.149 46.7786L174.605 53.7039L175.093 37.5547L175.555 53.684L180.764 47.1483L175.949 54.2336L188.413 54.8732L175.936 55.4828L181.031 62.9677L175.581 56.0524L175.093 72.1916L174.632 56.0624L169.423 62.598L174.231 55.5227L161.773 54.8732L174.251 54.2736L169.149 46.7786Z" fill="white"/>
</g>
</g>
<g opacity="0.41" filter="url(#filter8_f_3337_74266)">
<path style="mix-blend-mode:color-dodge" fill-rule="evenodd" clip-rule="evenodd" d="M168.768 261.345C168.768 276.285 160.663 288.407 150.66 288.407C140.657 288.407 132.553 276.295 132.553 261.345C132.553 246.395 140.657 234.283 150.66 234.283C160.663 234.283 168.768 246.395 168.768 261.345Z" fill="url(#paint22_radial_3337_74266)"/>
<g style="mix-blend-mode:overlay">
<path fill-rule="evenodd" clip-rule="evenodd" d="M144 252.921L149.45 259.846L149.938 243.697L150.399 259.826L155.608 253.29L150.801 260.376L163.258 261.015L150.781 261.615L155.883 269.1L150.433 262.184L149.938 278.334L149.477 262.204L144.268 268.73L149.076 261.655L136.625 261.015L149.096 260.416L144 252.921Z" fill="white"/>
</g>
</g>
<g opacity="0.41" filter="url(#filter9_f_3337_74266)">
<path style="mix-blend-mode:color-dodge" fill-rule="evenodd" clip-rule="evenodd" d="M170.546 326.482C170.546 341.422 162.442 353.543 152.438 353.543C142.435 353.543 134.331 341.432 134.331 326.482C134.331 311.532 142.435 299.42 152.438 299.42C162.442 299.42 170.546 311.532 170.546 326.482Z" fill="url(#paint23_radial_3337_74266)"/>
<g style="mix-blend-mode:overlay">
<path fill-rule="evenodd" clip-rule="evenodd" d="M145.779 318.057L151.228 324.973L151.716 308.833L152.178 324.953L157.387 318.427L152.579 325.512L165.036 326.152L152.559 326.751L157.661 334.236L152.211 327.321L151.716 343.47L151.255 327.341L146.046 333.867L150.854 326.791L138.403 326.152L150.874 325.542L145.779 318.057Z" fill="white"/>
</g>
</g>
</g>
</g>
<defs>
<filter id="filter0_f_3337_74266" x="-1.4375" y="-20" width="294.331" height="443.092" filterUnits="userSpaceOnUse" color-interpolation-filters="sRGB">
<feFlood flood-opacity="0" result="BackgroundImageFix"/>
<feBlend mode="normal" in="SourceGraphic" in2="BackgroundImageFix" result="shape"/>
<feGaussianBlur stdDeviation="10" result="effect1_foregroundBlur_3337_74266"/>
</filter>
<filter id="filter1_f_3337_74266" x="156.414" y="70.2265" width="92.7503" height="114.276" filterUnits="userSpaceOnUse" color-interpolation-filters="sRGB">
<feFlood flood-opacity="0" result="BackgroundImageFix"/>
<feBlend mode="normal" in="SourceGraphic" in2="BackgroundImageFix" result="shape"/>
<feGaussianBlur stdDeviation="12.305" result="effect1_foregroundBlur_3337_74266"/>
</filter>
<filter id="filter2_f_3337_74266" x="175.537" y="138.681" width="92.7503" height="114.276" filterUnits="userSpaceOnUse" color-interpolation-filters="sRGB">
<feFlood flood-opacity="0" result="BackgroundImageFix"/>
<feBlend mode="normal" in="SourceGraphic" in2="BackgroundImageFix" result="shape"/>
<feGaussianBlur stdDeviation="12.305" result="effect1_foregroundBlur_3337_74266"/>
</filter>
<filter id="filter3_f_3337_74266" x="65.2284" y="21.0195" width="92.7498" height="114.276" filterUnits="userSpaceOnUse" color-interpolation-filters="sRGB">
<feFlood flood-opacity="0" result="BackgroundImageFix"/>
<feBlend mode="normal" in="SourceGraphic" in2="BackgroundImageFix" result="shape"/>
<feGaussianBlur stdDeviation="12.305" result="effect1_foregroundBlur_3337_74266"/>
</filter>
<filter id="filter4_f_3337_74266" x="29.9759" y="139.181" width="92.7503" height="114.276" filterUnits="userSpaceOnUse" color-interpolation-filters="sRGB">
<feFlood flood-opacity="0" result="BackgroundImageFix"/>
<feBlend mode="normal" in="SourceGraphic" in2="BackgroundImageFix" result="shape"/>
<feGaussianBlur stdDeviation="12.305" result="effect1_foregroundBlur_3337_74266"/>
</filter>
<filter id="filter5_f_3337_74266" x="8.64586" y="257.991" width="92.7503" height="114.276" filterUnits="userSpaceOnUse" color-interpolation-filters="sRGB">
<feFlood flood-opacity="0" result="BackgroundImageFix"/>
<feBlend mode="normal" in="SourceGraphic" in2="BackgroundImageFix" result="shape"/>
<feGaussianBlur stdDeviation="12.305" result="effect1_foregroundBlur_3337_74266"/>
</filter>
<filter id="filter6_f_3337_74266" x="104.94" y="76.5024" width="92.7498" height="114.276" filterUnits="userSpaceOnUse" color-interpolation-filters="sRGB">
<feFlood flood-opacity="0" result="BackgroundImageFix"/>
<feBlend mode="normal" in="SourceGraphic" in2="BackgroundImageFix" result="shape"/>
<feGaussianBlur stdDeviation="12.305" result="effect1_foregroundBlur_3337_74266"/>
</filter>
<filter id="filter7_f_3337_74266" x="133.098" y="3.53123" width="85.4348" height="103.344" filterUnits="userSpaceOnUse" color-interpolation-filters="sRGB">
<feFlood flood-opacity="0" result="BackgroundImageFix"/>
<feBlend mode="normal" in="SourceGraphic" in2="BackgroundImageFix" result="shape"/>
<feGaussianBlur stdDeviation="12.305" result="effect1_foregroundBlur_3337_74266"/>
</filter>
<filter id="filter8_f_3337_74266" x="107.943" y="209.673" width="85.4348" height="103.344" filterUnits="userSpaceOnUse" color-interpolation-filters="sRGB">
<feFlood flood-opacity="0" result="BackgroundImageFix"/>
<feBlend mode="normal" in="SourceGraphic" in2="BackgroundImageFix" result="shape"/>
<feGaussianBlur stdDeviation="12.305" result="effect1_foregroundBlur_3337_74266"/>
</filter>
<filter id="filter9_f_3337_74266" x="109.721" y="274.81" width="85.4348" height="103.344" filterUnits="userSpaceOnUse" color-interpolation-filters="sRGB">
<feFlood flood-opacity="0" result="BackgroundImageFix"/>
<feBlend mode="normal" in="SourceGraphic" in2="BackgroundImageFix" result="shape"/>
<feGaussianBlur stdDeviation="12.305" result="effect1_foregroundBlur_3337_74266"/>
</filter>
<radialGradient id="paint0_radial_3337_74266" cx="0" cy="0" r="1" gradientUnits="userSpaceOnUse" gradientTransform="translate(238.153 303.044) scale(34.717 51.8853)">
<stop stop-color="#A6FFFF"/>
<stop offset="0.02" stop-color="#A6FFFF"/>
<stop offset="0.89" stop-color="#A6FFFF"/>
<stop offset="0.91" stop-color="#A6FFFF" stop-opacity="0.5476"/>
<stop offset="0.94" stop-color="#A6FFFF" stop-opacity="0.1156"/>
<stop offset="0.96" stop-color="#A6FFFF" stop-opacity="0.01"/>
<stop offset="0.97" stop-color="#A6FFFF" stop-opacity="0"/>
</radialGradient>
<radialGradient id="paint1_radial_3337_74266" cx="0" cy="0" r="1" gradientUnits="userSpaceOnUse" gradientTransform="translate(225.591 168.268) scale(39.2639 58.6807)">
<stop stop-color="#A6FFFF"/>
<stop offset="0.02" stop-color="#A6FFFF"/>
<stop offset="0.89" stop-color="#A6FFFF"/>
<stop offset="0.91" stop-color="#A6FFFF" stop-opacity="0.5476"/>
<stop offset="0.94" stop-color="#A6FFFF" stop-opacity="0.1156"/>
<stop offset="0.96" stop-color="#A6FFFF" stop-opacity="0.01"/>
<stop offset="0.97" stop-color="#A6FFFF" stop-opacity="0"/>
</radialGradient>
<radialGradient id="paint2_radial_3337_74266" cx="0" cy="0" r="1" gradientUnits="userSpaceOnUse" gradientTransform="translate(206.427 228.027) scale(26.7198 39.9333)">
<stop stop-color="#A6FFFF"/>
<stop offset="0.02" stop-color="#A6FFFF"/>
<stop offset="0.89" stop-color="#A6FFFF"/>
<stop offset="0.91" stop-color="#A6FFFF" stop-opacity="0.5476"/>
<stop offset="0.94" stop-color="#A6FFFF" stop-opacity="0.1156"/>
<stop offset="0.96" stop-color="#A6FFFF" stop-opacity="0.01"/>
<stop offset="0.97" stop-color="#A6FFFF" stop-opacity="0"/>
</radialGradient>
<radialGradient id="paint3_radial_3337_74266" cx="0" cy="0" r="1" gradientUnits="userSpaceOnUse" gradientTransform="translate(119.26 241.318) scale(26.7198 39.9333)">
<stop stop-color="#A6FFFF"/>
<stop offset="0.02" stop-color="#A6FFFF"/>
<stop offset="0.89" stop-color="#A6FFFF"/>
<stop offset="0.91" stop-color="#A6FFFF" stop-opacity="0.5476"/>
<stop offset="0.94" stop-color="#A6FFFF" stop-opacity="0.1156"/>
<stop offset="0.96" stop-color="#A6FFFF" stop-opacity="0.01"/>
<stop offset="0.97" stop-color="#A6FFFF" stop-opacity="0"/>
</radialGradient>
<radialGradient id="paint4_radial_3337_74266" cx="0" cy="0" r="1" gradientUnits="userSpaceOnUse" gradientTransform="translate(173.348 240.509) scale(26.7198 39.9333)">
<stop stop-color="#A6FFFF"/>
<stop offset="0.02" stop-color="#A6FFFF"/>
<stop offset="0.89" stop-color="#A6FFFF"/>
<stop offset="0.91" stop-color="#A6FFFF" stop-opacity="0.5476"/>
<stop offset="0.94" stop-color="#A6FFFF" stop-opacity="0.1156"/>
<stop offset="0.96" stop-color="#A6FFFF" stop-opacity="0.01"/>
<stop offset="0.97" stop-color="#A6FFFF" stop-opacity="0"/>
</radialGradient>
<radialGradient id="paint5_radial_3337_74266" cx="0" cy="0" r="1" gradientUnits="userSpaceOnUse" gradientTransform="translate(148.728 187.355) scale(26.7198 39.9333)">
<stop stop-color="#A6FFFF"/>
<stop offset="0.02" stop-color="#A6FFFF"/>
<stop offset="0.89" stop-color="#A6FFFF"/>
<stop offset="0.91" stop-color="#A6FFFF" stop-opacity="0.5476"/>
<stop offset="0.94" stop-color="#A6FFFF" stop-opacity="0.1156"/>
<stop offset="0.96" stop-color="#A6FFFF" stop-opacity="0.01"/>
<stop offset="0.97" stop-color="#A6FFFF" stop-opacity="0"/>
</radialGradient>
<radialGradient id="paint6_radial_3337_74266" cx="0" cy="0" r="1" gradientUnits="userSpaceOnUse" gradientTransform="translate(154.733 110.786) scale(26.7198 39.9333)">
<stop stop-color="#A6FFFF"/>
<stop offset="0.01" stop-color="#A6FFFF"/>
<stop offset="0.62" stop-color="#A6FFFF"/>
<stop offset="0.7" stop-color="#A6FFFF" stop-opacity="0.5476"/>
<stop offset="0.84" stop-color="#A6FFFF" stop-opacity="0.1156"/>
<stop offset="0.93" stop-color="#A6FFFF" stop-opacity="0.01"/>
<stop offset="0.97" stop-color="#A6FFFF" stop-opacity="0"/>
</radialGradient>
<radialGradient id="paint7_radial_3337_74266" cx="0" cy="0" r="1" gradientUnits="userSpaceOnUse" gradientTransform="translate(148.928 331.632) scale(47.8028 71.4422)">
<stop stop-color="#A6FFFF"/>
<stop offset="0.01" stop-color="#A6FFFF"/>
<stop offset="0.62" stop-color="#A6FFFF"/>
<stop offset="0.7" stop-color="#A6FFFF" stop-opacity="0.5476"/>
<stop offset="0.84" stop-color="#A6FFFF" stop-opacity="0.1156"/>
<stop offset="0.93" stop-color="#A6FFFF" stop-opacity="0.01"/>
<stop offset="0.97" stop-color="#A6FFFF" stop-opacity="0"/>
</radialGradient>
<radialGradient id="paint8_radial_3337_74266" cx="0" cy="0" r="1" gradientUnits="userSpaceOnUse" gradientTransform="translate(118.005 131.321) scale(22.3936 33.4676)">
<stop stop-color="#A6FFFF"/>
<stop offset="0.01" stop-color="#A6FFFF"/>
<stop offset="0.62" stop-color="#A6FFFF"/>
<stop offset="0.7" stop-color="#A6FFFF" stop-opacity="0.5476"/>
<stop offset="0.84" stop-color="#A6FFFF" stop-opacity="0.1156"/>
<stop offset="0.93" stop-color="#A6FFFF" stop-opacity="0.01"/>
<stop offset="0.97" stop-color="#A6FFFF" stop-opacity="0"/>
</radialGradient>
<radialGradient id="paint9_radial_3337_74266" cx="0" cy="0" r="1" gradientUnits="userSpaceOnUse" gradientTransform="translate(149.155 19.3471) scale(12.9453 19.3471)">
<stop stop-color="#A6FFFF"/>
<stop offset="0.01" stop-color="#A6FFFF"/>
<stop offset="0.62" stop-color="#A6FFFF"/>
<stop offset="0.7" stop-color="#A6FFFF" stop-opacity="0.5476"/>
<stop offset="0.84" stop-color="#A6FFFF" stop-opacity="0.1156"/>
<stop offset="0.93" stop-color="#A6FFFF" stop-opacity="0.01"/>
<stop offset="0.97" stop-color="#A6FFFF" stop-opacity="0"/>
</radialGradient>
<radialGradient id="paint10_radial_3337_74266" cx="0" cy="0" r="1" gradientUnits="userSpaceOnUse" gradientTransform="translate(205.036 84.8234) scale(16.964 25.353)">
<stop stop-color="#A6FFFF"/>
<stop offset="0.01" stop-color="#A6FFFF"/>
<stop offset="0.62" stop-color="#A6FFFF"/>
<stop offset="0.7" stop-color="#A6FFFF" stop-opacity="0.5476"/>
<stop offset="0.84" stop-color="#A6FFFF" stop-opacity="0.1156"/>
<stop offset="0.93" stop-color="#A6FFFF" stop-opacity="0.01"/>
<stop offset="0.97" stop-color="#A6FFFF" stop-opacity="0"/>
</radialGradient>
<radialGradient id="paint11_radial_3337_74266" cx="0" cy="0" r="1" gradientUnits="userSpaceOnUse" gradientTransform="translate(172.88 299.739) scale(16.964 25.353)">
<stop stop-color="#A6FFFF"/>
<stop offset="0.01" stop-color="#A6FFFF"/>
<stop offset="0.62" stop-color="#A6FFFF"/>
<stop offset="0.7" stop-color="#A6FFFF" stop-opacity="0.5476"/>
<stop offset="0.84" stop-color="#A6FFFF" stop-opacity="0.1156"/>
<stop offset="0.93" stop-color="#A6FFFF" stop-opacity="0.01"/>
<stop offset="0.97" stop-color="#A6FFFF" stop-opacity="0"/>
</radialGradient>
<radialGradient id="paint12_radial_3337_74266" cx="0" cy="0" r="1" gradientUnits="userSpaceOnUse" gradientTransform="translate(74.8468 288.527) scale(37.151 55.5229)">
<stop stop-color="#A6FFFF"/>
<stop offset="0.02" stop-color="#A6FFFF"/>
<stop offset="0.89" stop-color="#A6FFFF"/>
<stop offset="0.91" stop-color="#A6FFFF" stop-opacity="0.5476"/>
<stop offset="0.94" stop-color="#A6FFFF" stop-opacity="0.1156"/>
<stop offset="0.96" stop-color="#A6FFFF" stop-opacity="0.01"/>
<stop offset="0.97" stop-color="#A6FFFF" stop-opacity="0"/>
</radialGradient>
<radialGradient id="paint13_radial_3337_74266" cx="0" cy="0" r="1" gradientUnits="userSpaceOnUse" gradientTransform="translate(64.6898 102.142) scale(44.8139 66.9752)">
<stop stop-color="#A6FFFF"/>
<stop offset="0.02" stop-color="#A6FFFF"/>
<stop offset="0.71" stop-color="#A6FFFF"/>
<stop offset="0.77" stop-color="#A6FFFF" stop-opacity="0.5476"/>
<stop offset="0.87" stop-color="#A6FFFF" stop-opacity="0.1156"/>
<stop offset="0.94" stop-color="#A6FFFF" stop-opacity="0.01"/>
<stop offset="0.97" stop-color="#A6FFFF" stop-opacity="0"/>
</radialGradient>
<radialGradient id="paint14_radial_3337_74266" cx="0" cy="0" r="1" gradientUnits="userSpaceOnUse" gradientTransform="translate(63.3766 221.271) scale(44.8139 66.9752)">
<stop stop-color="#A6FFFF"/>
<stop offset="0.02" stop-color="#A6FFFF"/>
<stop offset="0.71" stop-color="#A6FFFF"/>
<stop offset="0.77" stop-color="#A6FFFF" stop-opacity="0.5476"/>
<stop offset="0.87" stop-color="#A6FFFF" stop-opacity="0.1156"/>
<stop offset="0.94" stop-color="#A6FFFF" stop-opacity="0.01"/>
<stop offset="0.97" stop-color="#A6FFFF" stop-opacity="0"/>
</radialGradient>
<radialGradient id="paint15_radial_3337_74266" cx="0" cy="0" r="1" gradientUnits="userSpaceOnUse" gradientTransform="translate(202.789 127.365) scale(21.765 32.5282)">
<stop stop-color="#A6FFFF"/>
<stop offset="1" stop-color="#8FDEFD" stop-opacity="0"/>
</radialGradient>
<radialGradient id="paint16_radial_3337_74266" cx="0" cy="0" r="1" gradientUnits="userSpaceOnUse" gradientTransform="translate(221.912 195.819) scale(21.765 32.5282)">
<stop stop-color="#A6FFFF"/>
<stop offset="1" stop-color="#8FDEFD" stop-opacity="0"/>
</radialGradient>
<radialGradient id="paint17_radial_3337_74266" cx="0" cy="0" r="1" gradientUnits="userSpaceOnUse" gradientTransform="translate(111.603 78.1577) scale(21.765 32.5282)">
<stop stop-color="#A6FFFF"/>
<stop offset="1" stop-color="#8FDEFD" stop-opacity="0"/>
</radialGradient>
<radialGradient id="paint18_radial_3337_74266" cx="0" cy="0" r="1" gradientUnits="userSpaceOnUse" gradientTransform="translate(76.351 196.319) scale(21.765 32.5282)">
<stop stop-color="#A6FFFF"/>
<stop offset="1" stop-color="#8FDEFD" stop-opacity="0"/>
</radialGradient>
<radialGradient id="paint19_radial_3337_74266" cx="0" cy="0" r="1" gradientUnits="userSpaceOnUse" gradientTransform="translate(55.0209 315.129) scale(21.765 32.5282)">
<stop stop-color="#A6FFFF"/>
<stop offset="1" stop-color="#8FDEFD" stop-opacity="0"/>
</radialGradient>
<radialGradient id="paint20_radial_3337_74266" cx="0" cy="0" r="1" gradientUnits="userSpaceOnUse" gradientTransform="translate(151.315 133.641) scale(21.765 32.5282)">
<stop stop-color="#A6FFFF"/>
<stop offset="1" stop-color="#8FDEFD" stop-opacity="0"/>
</radialGradient>
<radialGradient id="paint21_radial_3337_74266" cx="0" cy="0" r="1" gradientUnits="userSpaceOnUse" gradientTransform="translate(175.815 55.2031) scale(18.1074 27.0619)">
<stop stop-color="#A6FFFF"/>
<stop offset="1" stop-color="#8FDEFD" stop-opacity="0"/>
</radialGradient>
<radialGradient id="paint22_radial_3337_74266" cx="0" cy="0" r="1" gradientUnits="userSpaceOnUse" gradientTransform="translate(150.66 261.345) scale(18.1074 27.0619)">
<stop stop-color="#A6FFFF"/>
<stop offset="1" stop-color="#8FDEFD" stop-opacity="0"/>
</radialGradient>
<radialGradient id="paint23_radial_3337_74266" cx="0" cy="0" r="1" gradientUnits="userSpaceOnUse" gradientTransform="translate(152.438 326.482) scale(18.1074 27.0619)">
<stop stop-color="#A6FFFF"/>
<stop offset="1" stop-color="#8FDEFD" stop-opacity="0"/>
</radialGradient>
<clipPath id="clip0_3337_74266">
<rect width="280" height="418" fill="white"/>
</clipPath>
</defs>
</svg>
