<svg width="12" height="13" viewBox="0 0 12 13" fill="none" xmlns="http://www.w3.org/2000/svg">
<path d="M6 10.5H2.6C2.03995 10.5 1.75992 10.5 1.54601 10.391C1.35785 10.2951 1.20487 10.1422 1.10899 9.95399C1 9.74008 1 9.46005 1 8.9V4.1C1 3.53995 1 3.25992 1.10899 3.04601C1.20487 2.85785 1.35785 2.70487 1.54601 2.60899C1.75992 2.5 2.03995 2.5 2.6 2.5H2.8C3.9201 2.5 4.48016 2.5 4.90798 2.71799C5.28431 2.90973 5.59027 3.21569 5.78201 3.59202C6 4.01984 6 4.5799 6 5.7M6 10.5V5.7M6 10.5H9.4C9.96005 10.5 10.2401 10.5 10.454 10.391C10.6422 10.2951 10.7951 10.1422 10.891 9.95399C11 9.74008 11 9.46005 11 8.9V4.1C11 3.53995 11 3.25992 10.891 3.04601C10.7951 2.85785 10.6422 2.70487 10.454 2.60899C10.2401 2.5 9.96005 2.5 9.4 2.5H9.2C8.07989 2.5 7.51984 2.5 7.09202 2.71799C6.71569 2.90973 6.40973 3.21569 6.21799 3.59202C6 4.01984 6 4.5799 6 5.7" stroke="white" strokeWidth="1.3" strokeLinecap="round" strokeLinejoin="round"/>
</svg>
