<svg width="25" height="25" viewBox="0 0 25 25" fill="none" xmlns="http://www.w3.org/2000/svg">
<path d="M8.69997 21.5H16.7M12.7 17.5V21.5M7.49997 17.5H17.9C19.5801 17.5 20.4202 17.5 21.0619 17.173C21.6264 16.8854 22.0854 16.4265 22.373 15.862C22.7 15.2202 22.7 14.3802 22.7 12.7V8.3C22.7 6.61984 22.7 5.77976 22.373 5.13803C22.0854 4.57354 21.6264 4.1146 21.0619 3.82698C20.4202 3.5 19.5801 3.5 17.9 3.5H7.49997C5.81981 3.5 4.97973 3.5 4.33799 3.82698C3.77351 4.1146 3.31457 4.57354 3.02695 5.13803C2.69997 5.77976 2.69997 6.61984 2.69997 8.3V12.7C2.69997 14.3802 2.69997 15.2202 3.02695 15.862C3.31457 16.4265 3.77351 16.8854 4.33799 17.173C4.97973 17.5 5.81981 17.5 7.49997 17.5Z" stroke="#667085" strokeWidth="2" strokeLinecap="round" strokeLinejoin="round"/>
</svg>
