<svg width="12" height="13" viewBox="0 0 12 13" fill="none" xmlns="http://www.w3.org/2000/svg">
<g clip-path="url(#clip0_82_2513)">
<path d="M6 11.5C8.76142 11.5 11 9.26142 11 6.5C11 3.73858 8.76142 1.5 6 1.5C3.23858 1.5 1 3.73858 1 6.5C1 9.26142 3.23858 11.5 6 11.5Z" stroke="white" strokeWidth="1.3" strokeLinecap="round" strokeLinejoin="round"/>
<path d="M4.75 4.98267C4.75 4.74402 4.75 4.6247 4.79987 4.55809C4.84333 4.50004 4.90986 4.46372 4.98219 4.45855C5.06519 4.45262 5.16556 4.51715 5.3663 4.64619L7.7266 6.16353C7.90079 6.27551 7.98789 6.3315 8.01797 6.4027C8.04426 6.4649 8.04426 6.5351 8.01797 6.5973C7.98789 6.6685 7.90079 6.72449 7.7266 6.83647L5.3663 8.35381C5.16556 8.48285 5.06519 8.54738 4.98219 8.54145C4.90986 8.53628 4.84333 8.49996 4.79987 8.44191C4.75 8.3753 4.75 8.25598 4.75 8.01733V4.98267Z" stroke="white" strokeWidth="1.3" strokeLinecap="round" strokeLinejoin="round"/>
</g>
<defs>
<clipPath id="clip0_82_2513">
<rect width="12" height="12" fill="white" transform="translate(0 0.5)"/>
</clipPath>
</defs>
</svg>
