<svg width="12" height="13" viewBox="0 0 12 13" fill="none" xmlns="http://www.w3.org/2000/svg">
<path d="M10.5 9.5L9.99994 10.047C9.73473 10.3371 9.37507 10.5 9.00006 10.5C8.62505 10.5 8.2654 10.3371 8.00019 10.047C7.73461 9.75756 7.37499 9.59503 7.00009 9.59503C6.62519 9.59503 6.26557 9.75756 5.99999 10.047M1.5 10.5H2.33727C2.58186 10.5 2.70416 10.5 2.81925 10.4724C2.92128 10.4479 3.01883 10.4075 3.1083 10.3526C3.20921 10.2908 3.29569 10.2043 3.46864 10.0314L9.75001 3.74999C10.1642 3.33578 10.1642 2.6642 9.75001 2.24999C9.3358 1.83578 8.66423 1.83578 8.25001 2.24999L1.96863 8.53136C1.79568 8.70431 1.7092 8.79079 1.64736 8.89171C1.59253 8.98118 1.55213 9.07872 1.52763 9.18076C1.5 9.29585 1.5 9.41814 1.5 9.66273V10.5Z" stroke="white" strokeWidth="1.3" strokeLinecap="round" strokeLinejoin="round"/>
</svg>
