<svg width="18" height="18" viewBox="0 0 18 18" fill="none" xmlns="http://www.w3.org/2000/svg">
<path fill-rule="evenodd" clipRule="evenodd" d="M12.1741 1.6875H5.82592H5.82591C5.21629 1.68749 4.72458 1.68749 4.3264 1.72002C3.91642 1.75352 3.55632 1.82429 3.22315 1.99404C2.69395 2.26369 2.26369 2.69395 1.99404 3.22315C1.82429 3.55632 1.75352 3.91642 1.72002 4.3264C1.68749 4.72458 1.68749 5.21629 1.6875 5.82591V5.82592V12.1741V12.1741C1.68749 12.7837 1.68749 13.2754 1.72002 13.6736C1.75352 14.0836 1.82429 14.4437 1.99404 14.7768C2.26369 15.3061 2.69395 15.7363 3.22315 16.006C3.55632 16.1757 3.91642 16.2465 4.3264 16.28C4.72458 16.3125 5.21628 16.3125 5.82591 16.3125H12.1741C12.7837 16.3125 13.2754 16.3125 13.6736 16.28C14.0836 16.2465 14.4437 16.1757 14.7768 16.006C15.3061 15.7363 15.7363 15.3061 16.006 14.7768C16.1757 14.4437 16.2465 14.0836 16.28 13.6736C16.3125 13.2754 16.3125 12.7837 16.3125 12.1741V5.82591C16.3125 5.21628 16.3125 4.72458 16.28 4.3264C16.2465 3.91642 16.1757 3.55632 16.006 3.22315C15.7363 2.69395 15.3061 2.26369 14.7768 1.99404C14.4437 1.82429 14.0836 1.75352 13.6736 1.72002C13.2754 1.68749 12.7837 1.68749 12.1741 1.6875H12.1741ZM6.47689 6.05152C6.7645 5.93907 7.09164 6.0144 7.3011 6.24132L10.5 9.70679V6.75003C10.5 6.33582 10.8358 6.00003 11.25 6.00003C11.6642 6.00003 12 6.33582 12 6.75003V11.625C12 11.9338 11.8107 12.2111 11.5231 12.3235C11.2355 12.436 10.9084 12.3607 10.6989 12.1337L7.5 8.66827V11.625C7.5 12.0392 7.16421 12.375 6.75 12.375C6.33579 12.375 6 12.0392 6 11.625V6.75003C6 6.44122 6.18928 6.16397 6.47689 6.05152Z" fill="#F04C29"/>
</svg>
