<svg width="25" height="25" viewBox="0 0 25 25" fill="none" xmlns="http://www.w3.org/2000/svg">
<path d="M5.89992 14.7864C4.04856 15.6031 2.89992 16.7412 2.89992 18C2.89992 20.4853 7.37707 22.5 12.8999 22.5C18.4228 22.5 22.8999 20.4853 22.8999 18C22.8999 16.7412 21.7513 15.6031 19.8999 14.7864M18.8999 8.5C18.8999 12.5637 14.3999 14.5 12.8999 17.5C11.3999 14.5 6.89992 12.5637 6.89992 8.5C6.89992 5.18629 9.58621 2.5 12.8999 2.5C16.2136 2.5 18.8999 5.18629 18.8999 8.5ZM13.8999 8.5C13.8999 9.05228 13.4522 9.5 12.8999 9.5C12.3476 9.5 11.8999 9.05228 11.8999 8.5C11.8999 7.94772 12.3476 7.5 12.8999 7.5C13.4522 7.5 13.8999 7.94772 13.8999 8.5Z" stroke="#667085" strokeWidth="2" strokeLinecap="round" strokeLinejoin="round"/>
</svg>
