<svg width="20" height="21" viewBox="0 0 20 21" fill="none" xmlns="http://www.w3.org/2000/svg">
<path d="M3.33333 11.3334C3.79357 11.3334 4.16667 10.9603 4.16667 10.5001C4.16667 10.0398 3.79357 9.66675 3.33333 9.66675C2.8731 9.66675 2.5 10.0398 2.5 10.5001C2.5 10.9603 2.8731 11.3334 3.33333 11.3334Z" fill="black"/>
<path d="M3.33333 6.33341C3.79357 6.33341 4.16667 5.96032 4.16667 5.50008C4.16667 5.03984 3.79357 4.66675 3.33333 4.66675C2.8731 4.66675 2.5 5.03984 2.5 5.50008C2.5 5.96032 2.8731 6.33341 3.33333 6.33341Z" fill="black"/>
<path d="M3.33333 16.3334C3.79357 16.3334 4.16667 15.9603 4.16667 15.5001C4.16667 15.0398 3.79357 14.6667 3.33333 14.6667C2.8731 14.6667 2.5 15.0398 2.5 15.5001C2.5 15.9603 2.8731 16.3334 3.33333 16.3334Z" fill="black"/>
<path d="M17.5 10.5001L7.5 10.5001M17.5 5.50008L12.5 5.50008L7.5 5.50008M17.5 15.5001L7.5 15.5001M4.16667 10.5001C4.16667 10.9603 3.79357 11.3334 3.33333 11.3334C2.8731 11.3334 2.5 10.9603 2.5 10.5001C2.5 10.0398 2.8731 9.66675 3.33333 9.66675C3.79357 9.66675 4.16667 10.0398 4.16667 10.5001ZM4.16667 5.50008C4.16667 5.96032 3.79357 6.33341 3.33333 6.33341C2.8731 6.33341 2.5 5.96032 2.5 5.50008C2.5 5.03984 2.8731 4.66675 3.33333 4.66675C3.79357 4.66675 4.16667 5.03984 4.16667 5.50008ZM4.16667 15.5001C4.16667 15.9603 3.79357 16.3334 3.33333 16.3334C2.8731 16.3334 2.5 15.9603 2.5 15.5001C2.5 15.0398 2.8731 14.6667 3.33333 14.6667C3.79357 14.6667 4.16667 15.0398 4.16667 15.5001Z" stroke="#344054" strokeWidth="1.66667" strokeLinecap="round" strokeLinejoin="round"/>
</svg>
