<svg width="12" height="12" viewBox="0 0 12 12" fill="none" xmlns="http://www.w3.org/2000/svg">
<g clipPath="url(#clip0_3880_110)">
<path d="M4.5 10.5V6.79999C4.5 6.51997 4.5 6.37995 4.5545 6.273C4.60243 6.17892 4.67892 6.10243 4.773 6.05449C4.87996 5.99999 5.01997 5.99999 5.3 5.99999H6.7C6.98003 5.99999 7.12004 5.99999 7.227 6.05449C7.32108 6.10243 7.39757 6.17892 7.4455 6.273C7.5 6.37995 7.5 6.51997 7.5 6.79999V10.5M5.50885 1.382L2.1177 4.01956C1.89101 4.19587 1.77767 4.28403 1.69601 4.39443C1.62368 4.49222 1.5698 4.60239 1.53701 4.71953C1.5 4.85176 1.5 4.99535 1.5 5.28253V8.89999C1.5 9.46004 1.5 9.74007 1.60899 9.95398C1.70487 10.1421 1.85785 10.2951 2.04601 10.391C2.25992 10.5 2.53995 10.5 3.1 10.5H8.9C9.46005 10.5 9.74008 10.5 9.95399 10.391C10.1422 10.2951 10.2951 10.1421 10.391 9.95398C10.5 9.74007 10.5 9.46004 10.5 8.89999V5.28253C10.5 4.99535 10.5 4.85176 10.463 4.71953C10.4302 4.60239 10.3763 4.49222 10.304 4.39443C10.2223 4.28403 10.109 4.19587 9.88231 4.01956L6.49115 1.382C6.31549 1.24537 6.22766 1.17706 6.13067 1.1508C6.0451 1.12763 5.9549 1.12763 5.86933 1.1508C5.77234 1.17706 5.68451 1.24537 5.50885 1.382Z" stroke="#98A2B3" strokeWidth="1.5" strokeLinecap="round" strokeLinejoin="round"/>
</g>
<defs>
<clipPath id="clip0_3880_110">
<rect width="12" height="12" fill="white"/>
</clipPath>
</defs>
</svg>
