<svg width="18" height="18" viewBox="0 0 18 18" fill="none" xmlns="http://www.w3.org/2000/svg">
<path d="M2.72852 15.5048L3.02362 14.9256H3.02361L2.72852 15.5048ZM1.74524 14.5215L1.16608 14.8166L1.16608 14.8166L1.74524 14.5215ZM16.2548 14.5215L16.8339 14.8166V14.8166L16.2548 14.5215ZM15.2715 15.5048L14.9764 14.9256L14.9764 14.9256L15.2715 15.5048ZM1.52173 9.9692L0.878008 9.87908L0.878008 9.87908L1.52173 9.9692ZM1.61747 9.56366L1.0014 9.35638L1.0014 9.35638L1.61747 9.56366ZM16.2423 9.23643L15.6577 9.52062L15.6577 9.52062L16.2423 9.23643ZM16.3825 9.56366L16.9986 9.35638V9.35638L16.3825 9.56366ZM16.4783 9.9692L17.122 9.87908V9.87908L16.4783 9.9692ZM11.9892 4.43369C11.6303 4.43369 11.3392 4.7247 11.3392 5.08369C11.3392 5.44267 11.6303 5.73369 11.9892 5.73369V4.43369ZM5.97108 5.73369C6.33007 5.73369 6.62108 5.44267 6.62108 5.08369C6.62108 4.7247 6.33007 4.43369 5.97108 4.43369V5.73369ZM1.875 9.1C1.51601 9.1 1.225 9.39102 1.225 9.75C1.225 10.109 1.51601 10.4 1.875 10.4V9.1ZM16.125 10.4C16.484 10.4 16.775 10.109 16.775 9.75C16.775 9.39102 16.484 9.1 16.125 9.1V10.4ZM1.875 9.00016L1.29362 8.70947L1.29362 8.70947L1.875 9.00016ZM1.8854 8.98041L2.45141 9.3L2.45141 9.29999L1.8854 8.98041ZM15.9614 8.76707L16.4905 8.38956L16.4905 8.38955L15.9614 8.76707ZM16.1573 9.06811L16.7269 8.75497L16.7269 8.75495L16.1573 9.06811ZM16.0804 8.93875L16.6278 8.58823L16.6278 8.58822L16.0804 8.93875ZM7.86623 2.25V1.6V2.25ZM10.0941 2.25V2.9V2.25ZM11.3496 2.38205L11.0505 2.95916L11.0505 2.95916L11.3496 2.38205ZM12 4.18846L12.65 4.19626V4.18846H12ZM11.8701 2.91151L12.4513 2.62038V2.62038L11.8701 2.91151ZM5.96035 4.18846L5.3103 4.18846L5.3104 4.19625L5.96035 4.18846ZM6.09018 2.91151L5.50903 2.62037V2.62037L6.09018 2.91151ZM6.61074 2.38205L6.90982 2.95916V2.95916L6.61074 2.38205ZM7.18575 7.5V6.85V7.5ZM10.7746 7.5V8.15V7.5ZM11.9745 6.31439L11.3245 6.30659L11.9745 6.31439ZM5.98584 6.31439L5.33589 6.32218V6.32218L5.98584 6.31439ZM11.5573 7.41947L11.2643 6.83926L11.5573 7.41947ZM11.8846 7.09609L12.4612 7.39603L11.8846 7.09609ZM6.40303 7.41947L6.11002 7.99969H6.11002L6.40303 7.41947ZM6.07574 7.09609L5.49908 7.39603L5.49908 7.39603L6.07574 7.09609ZM5.25 6.85C4.89101 6.85 4.6 7.14101 4.6 7.5C4.6 7.85898 4.89101 8.15 5.25 8.15V6.85ZM12.75 8.15C13.109 8.15 13.4 7.85898 13.4 7.5C13.4 7.14101 13.109 6.85 12.75 6.85V8.15ZM15.85 10.5998V12.15H17.15V10.5998H15.85ZM12.9 15.1H5.1V16.4H12.9V15.1ZM2.15 12.15V10.5998H0.85V12.15H2.15ZM5.1 15.1C4.45922 15.1 4.01772 15.0995 3.67514 15.0715C3.34014 15.0441 3.15736 14.9938 3.02362 14.9256L2.43343 16.0839C2.78098 16.261 3.15388 16.3332 3.56927 16.3672C3.97707 16.4005 4.48067 16.4 5.1 16.4V15.1ZM0.85 12.15C0.85 12.7693 0.849495 13.2729 0.882813 13.6807C0.916752 14.0961 0.988993 14.469 1.16608 14.8166L2.32439 14.2264C2.25624 14.0926 2.20587 13.9099 2.1785 13.5749C2.15051 13.2323 2.15 12.7908 2.15 12.15H0.85ZM3.02361 14.9256C2.72256 14.7722 2.47779 14.5274 2.32439 14.2264L1.16608 14.8166C1.44411 15.3622 1.88776 15.8059 2.43343 16.0839L3.02361 14.9256ZM15.85 12.15C15.85 12.7908 15.8495 13.2323 15.8215 13.5749C15.7941 13.9099 15.7438 14.0926 15.6756 14.2264L16.8339 14.8166C17.011 14.469 17.0832 14.0961 17.1172 13.6807C17.1505 13.2729 17.15 12.7693 17.15 12.15H15.85ZM12.9 16.4C13.5193 16.4 14.0229 16.4005 14.4307 16.3672C14.8461 16.3332 15.219 16.261 15.5666 16.0839L14.9764 14.9256C14.8426 14.9938 14.6599 15.0441 14.3249 15.0715C13.9823 15.0995 13.5408 15.1 12.9 15.1V16.4ZM15.6756 14.2264C15.5222 14.5274 15.2774 14.7722 14.9764 14.9256L15.5666 16.0839C16.1122 15.8059 16.5559 15.3622 16.8339 14.8166L15.6756 14.2264ZM2.15 10.5998C2.15 10.2655 2.15144 10.1594 2.16545 10.0593L0.878008 9.87908C0.848564 10.0894 0.85 10.3002 0.85 10.5998H2.15ZM1.0014 9.35638C0.94419 9.52642 0.902882 9.70141 0.878008 9.87908L2.16545 10.0593C2.17918 9.96129 2.20197 9.86475 2.23353 9.77094L1.0014 9.35638ZM15.6577 9.52062C15.7192 9.64725 15.7469 9.71272 15.7665 9.77094L16.9986 9.35638C16.9523 9.21886 16.896 9.0945 16.8268 8.95224L15.6577 9.52062ZM17.15 10.5998C17.15 10.3002 17.1514 10.0894 17.122 9.87908L15.8345 10.0593C15.8486 10.1594 15.85 10.2655 15.85 10.5998H17.15ZM15.7665 9.77094C15.798 9.86475 15.8208 9.96129 15.8345 10.0593L17.122 9.87908C17.0971 9.70141 17.0558 9.52643 16.9986 9.35638L15.7665 9.77094ZM11.9892 5.73369C12.4267 5.73369 12.5842 5.73949 12.7061 5.77519C12.7866 5.79873 12.8921 5.8479 13.1289 6.0847L14.0482 5.16556C13.7436 4.86091 13.4534 4.63937 13.0714 4.52755C12.7309 4.42788 12.3595 4.43369 11.9892 4.43369V5.73369ZM5.97108 4.43369C5.30936 4.43369 4.33626 4.39955 3.63661 5.19621L4.61339 6.05405C4.86453 5.76809 5.19064 5.73369 5.97108 5.73369V4.43369ZM1.29362 8.70947C1.16266 8.97141 1.06844 9.15712 1.0014 9.35638L2.23353 9.77094C2.26523 9.67671 2.31067 9.58226 2.45638 9.29084L1.29362 8.70947ZM2.45141 9.29999C2.45063 9.30138 2.4521 9.29876 2.45742 9.28984C2.46222 9.28181 2.46871 9.27107 2.47702 9.25745C2.49361 9.23024 2.51588 9.19412 2.5434 9.14983C2.59836 9.06139 2.67253 8.94316 2.76066 8.80384C2.93691 8.52526 3.16754 8.16468 3.40965 7.79309C3.90943 7.02599 4.41413 6.28094 4.61339 6.05405L3.63661 5.19621C3.36048 5.51063 2.79619 6.35322 2.32043 7.08343C1.83635 7.82642 1.38252 8.54901 1.31938 8.66084L2.45141 9.29999ZM16.4905 8.38955C16.2503 8.05291 15.7876 7.396 15.3193 6.75858C14.8633 6.13792 14.361 5.47842 14.0482 5.16556L13.1289 6.0847C13.3574 6.31328 13.7982 6.8838 14.2717 7.52828C14.7329 8.156 15.1859 8.79934 15.4323 9.1446L16.4905 8.38955ZM2.45638 9.29084C2.45761 9.28838 2.45533 9.29305 2.45141 9.3L1.31939 8.66083C1.30795 8.68108 1.29922 8.69826 1.29362 8.70947L2.45638 9.29084ZM16.8268 8.95225C16.7897 8.87588 16.7633 8.82124 16.7269 8.75497L15.5877 9.38124C15.6056 9.41391 15.6178 9.43851 15.6577 9.52062L16.8268 8.95225ZM15.4323 9.14459C15.4942 9.23135 15.5132 9.25831 15.533 9.28927L16.6278 8.58822C16.5867 8.52411 16.5467 8.4683 16.4905 8.38956L15.4323 9.14459ZM16.7269 8.75495C16.6978 8.70214 16.6603 8.63899 16.6278 8.58823L15.533 9.28926C15.5499 9.31561 15.5726 9.35383 15.5877 9.38126L16.7269 8.75495ZM7.86623 2.9L10.0941 2.9V1.6L7.86623 1.6V2.9ZM10.0941 2.9C10.4386 2.9 10.6572 2.90052 10.8226 2.91427C10.9802 2.92737 11.031 2.94903 11.0505 2.95916L11.6487 1.80494C11.4134 1.68302 11.17 1.63866 10.9303 1.61874C10.6985 1.59948 10.4167 1.6 10.0941 1.6V2.9ZM12.65 4.18846C12.65 3.85975 12.6505 3.57477 12.6317 3.34068C12.6123 3.09932 12.5693 2.85588 12.4513 2.62038L11.289 3.20265C11.3008 3.2263 11.3228 3.28208 11.3358 3.44477C11.3495 3.61473 11.35 3.83865 11.35 4.18846H12.65ZM11.0505 2.95916C11.1515 3.01148 11.2356 3.09607 11.289 3.20265L12.4513 2.62038C12.2763 2.27102 11.996 1.98493 11.6487 1.80494L11.0505 2.95916ZM6.61035 4.18846C6.61035 3.83866 6.61084 3.61474 6.62449 3.44477C6.63756 3.28208 6.65948 3.2263 6.67133 3.20265L5.50903 2.62037C5.39105 2.85588 5.34805 3.09932 5.32867 3.34068C5.30986 3.57477 5.31035 3.85975 5.31035 4.18846L6.61035 4.18846ZM7.86623 1.6C7.54358 1.6 7.26183 1.59948 7.03004 1.61874C6.79033 1.63866 6.54694 1.68302 6.31166 1.80494L6.90982 2.95916C6.92935 2.94903 6.98014 2.92737 7.1377 2.91427C7.30317 2.90052 7.52176 2.9 7.86623 2.9V1.6ZM6.67133 3.20265C6.72472 3.09607 6.80885 3.01148 6.90982 2.95916L6.31166 1.80494C5.96436 1.98493 5.68404 2.27102 5.50903 2.62037L6.67133 3.20265ZM7.18575 8.15L10.7746 8.15V6.85L7.18575 6.85V8.15ZM12.6244 6.32218L12.6499 4.19626L11.35 4.18067L11.3245 6.30659L12.6244 6.32218ZM6.63579 6.30659L6.6103 4.18067L5.3104 4.19625L5.33589 6.32218L6.63579 6.30659ZM10.7746 8.15C10.9717 8.15 11.1584 8.1505 11.3146 8.1378C11.4785 8.12447 11.6645 8.09352 11.8503 7.99969L11.2643 6.83926C11.2906 6.82595 11.293 6.83527 11.2093 6.84207C11.1179 6.8495 10.993 6.85 10.7746 6.85V8.15ZM11.3245 6.30659C11.3219 6.52499 11.3199 6.64991 11.3114 6.74118C11.3036 6.8248 11.2943 6.82234 11.3079 6.79614L12.4612 7.39603C12.5573 7.21136 12.5905 7.02579 12.6058 6.86205C12.6203 6.70596 12.6221 6.51926 12.6244 6.32218L11.3245 6.30659ZM11.8503 7.99969C12.1122 7.86745 12.3259 7.65629 12.4612 7.39603L11.3079 6.79614C11.2983 6.81473 11.283 6.82982 11.2643 6.83926L11.8503 7.99969ZM7.18575 6.85C6.96734 6.85 6.8424 6.8495 6.75104 6.84207C6.66733 6.83527 6.66968 6.82595 6.69604 6.83926L6.11002 7.99969C6.29583 8.09352 6.48179 8.12447 6.6457 8.1378C6.80195 8.1505 6.98866 8.15 7.18575 8.15V6.85ZM5.33589 6.32218C5.33825 6.51926 5.33999 6.70595 5.35456 6.86205C5.36985 7.02579 5.40303 7.21136 5.49908 7.39603L6.6524 6.79614C6.66602 6.82234 6.65674 6.8248 6.64893 6.74118C6.64041 6.64991 6.63841 6.52499 6.63579 6.30659L5.33589 6.32218ZM6.69604 6.83926C6.67733 6.82982 6.66207 6.81473 6.6524 6.79614L5.49908 7.39603C5.63445 7.65629 5.84816 7.86745 6.11002 7.99969L6.69604 6.83926ZM5.25 8.15H12.75V6.85H5.25V8.15ZM1.875 10.4H16.125V9.1H1.875V10.4Z" fill="#000000"/>
</svg>
