<svg width="14" height="15" viewBox="0 0 14 15" fill="none" xmlns="http://www.w3.org/2000/svg">
<g clipPath="url(#clip0_1351_14624)">
<path d="M7.57301 2.11227C7.36807 1.95287 7.2656 1.87318 7.15245 1.84254C7.05261 1.81551 6.94738 1.81551 6.84755 1.84254C6.7344 1.87318 6.63193 1.95287 6.42699 2.11227L2.47064 5.18943C2.20618 5.39512 2.07395 5.49797 1.97868 5.62677C1.8943 5.74086 1.83143 5.8694 1.79318 6.00605C1.75 6.16032 1.75 6.32785 1.75 6.66289V10.8833C1.75 11.5367 1.75 11.8634 1.87716 12.1129C1.98901 12.3324 2.16749 12.5109 2.38701 12.6228C2.63657 12.7499 2.96327 12.7499 3.61667 12.7499H4.78333C4.94668 12.7499 5.02836 12.7499 5.09075 12.7181C5.14563 12.6902 5.19025 12.6456 5.21821 12.5907C5.25 12.5283 5.25 12.4466 5.25 12.2833V8.43326C5.25 8.10657 5.25 7.94322 5.31358 7.81844C5.36951 7.70867 5.45874 7.61944 5.56851 7.56351C5.69329 7.49993 5.85664 7.49993 6.18333 7.49993H7.81667C8.14336 7.49993 8.30671 7.49993 8.43149 7.56351C8.54126 7.61944 8.63049 7.70867 8.68642 7.81844C8.75 7.94322 8.75 8.10657 8.75 8.43326V12.2833C8.75 12.4466 8.75 12.5283 8.78179 12.5907C8.80975 12.6456 8.85437 12.6902 8.90925 12.7181C8.97164 12.7499 9.05332 12.7499 9.21667 12.7499H10.3833C11.0367 12.7499 11.3634 12.7499 11.613 12.6228C11.8325 12.5109 12.011 12.3324 12.1228 12.1129C12.25 11.8634 12.25 11.5367 12.25 10.8833V6.66289C12.25 6.32785 12.25 6.16032 12.2068 6.00605C12.1686 5.8694 12.1057 5.74086 12.0213 5.62677C11.9261 5.49797 11.7938 5.39512 11.5294 5.18943L7.57301 2.11227Z" stroke="#0C6812" strokeWidth="1.66667" strokeLinecap="round" strokeLinejoin="round"/>
</g>
<defs>
<clipPath id="clip0_1351_14624">
<rect width="14" height="14" fill="white" transform="translate(0 0.5)"/>
</clipPath>
</defs>
</svg>
