<svg width="20" height="20" viewBox="0 0 20 20" fill="none" xmlns="http://www.w3.org/2000/svg">
<path d="M10.0003 6.33332H6.25033C5.69779 6.33332 5.16789 6.11383 4.77719 5.72313C4.38649 5.33243 4.16699 4.80252 4.16699 4.24999C4.16699 3.69746 4.38649 3.16755 4.77719 2.77685C5.16789 2.38615 5.69779 2.16666 6.25033 2.16666C9.16699 2.16666 10.0003 6.33332 10.0003 6.33332ZM10.0003 6.33332H13.7503C14.3029 6.33332 14.8328 6.11383 15.2235 5.72313C15.6142 5.33243 15.8337 4.80252 15.8337 4.24999C15.8337 3.69746 15.6142 3.16755 15.2235 2.77685C14.8328 2.38615 14.3029 2.16666 13.7503 2.16666C10.8337 2.16666 10.0003 6.33332 10.0003 6.33332ZM10.0003 6.33332L10.0003 18.8333M1.66699 12.1667H18.3337M1.66699 8.99999L1.66699 16.1667C1.66699 17.1001 1.66699 17.5668 1.84865 17.9233C2.00844 18.2369 2.2634 18.4919 2.57701 18.6517C2.93353 18.8333 3.40024 18.8333 4.33366 18.8333L15.667 18.8333C16.6004 18.8333 17.0671 18.8333 17.4236 18.6517C17.7372 18.4919 17.9922 18.2369 18.152 17.9233C18.3337 17.5668 18.3337 17.1001 18.3337 16.1667V8.99999C18.3337 8.06657 18.3337 7.59986 18.152 7.24334C17.9922 6.92974 17.7372 6.67477 17.4236 6.51498C17.0671 6.33333 16.6004 6.33333 15.667 6.33332L4.33366 6.33332C3.40024 6.33332 2.93353 6.33332 2.57701 6.51498C2.2634 6.67477 2.00844 6.92974 1.84865 7.24334C1.66699 7.59986 1.66699 8.06657 1.66699 8.99999Z" stroke="black" stroke-width="1.3" stroke-linecap="round" stroke-linejoin="round"/>
</svg>
