<svg width="15" height="14" viewBox="0 0 15 14" fill="none" xmlns="http://www.w3.org/2000/svg">
<path d="M9.25011 8.75003V5.25003M9.25011 5.25003H5.75011M9.25011 5.25003L5.75011 8.74997M5.05 12.25H9.95C10.9301 12.25 11.4201 12.25 11.7945 12.0593C12.1238 11.8915 12.3915 11.6238 12.5593 11.2945C12.75 10.9201 12.75 10.4301 12.75 9.45V4.55C12.75 3.56991 12.75 3.07986 12.5593 2.70552C12.3915 2.37623 12.1238 2.10852 11.7945 1.94074C11.4201 1.75 10.9301 1.75 9.95 1.75H5.05C4.06991 1.75 3.57986 1.75 3.20552 1.94074C2.87623 2.10852 2.60852 2.37623 2.44074 2.70552C2.25 3.07986 2.25 3.56991 2.25 4.55V9.45C2.25 10.4301 2.25 10.9201 2.44074 11.2945C2.60852 11.6238 2.87623 11.8915 3.20552 12.0593C3.57986 12.25 4.06991 12.25 5.05 12.25Z" stroke="#344054" strokeWidth="1.3" strokeLinecap="round" strokeLinejoin="round"/>
</svg>
