<svg width="16" height="17" viewBox="0 0 16 17" fill="none" xmlns="http://www.w3.org/2000/svg">
<path d="M6.05998 6.49998C6.21672 6.05442 6.52608 5.67872 6.93328 5.4394C7.34048 5.20009 7.81924 5.11261 8.28476 5.19245C8.75028 5.2723 9.17252 5.51433 9.4767 5.87567C9.78087 6.237 9.94735 6.69433 9.94665 7.16665C9.94665 8.49998 7.94665 9.16665 7.94665 9.16665M7.99998 11.8333H8.00665M14.6666 8.49998C14.6666 12.1819 11.6819 15.1666 7.99998 15.1666C4.31808 15.1666 1.33331 12.1819 1.33331 8.49998C1.33331 4.81808 4.31808 1.83331 7.99998 1.83331C11.6819 1.83331 14.6666 4.81808 14.6666 8.49998Z" stroke="#98A2B3" strokeWidth="1.33333" strokeLinecap="round" strokeLinejoin="round"/>
</svg>
